<svg version="1.1" xmlns="http://www.w3.org/2000/svg" xmlns:xlink="http://www.w3.org/1999/xlink" width="1012" height="851"><defs><clipPath id="ZGTurUWMlvTd"><path fill="none" stroke="none" d=" M 0 0 L 1012 0 L 1012 851 L 0 851 L 0 0 Z"/></clipPath></defs><g transform="scale(1,1)" clip-path="url(#ZGTurUWMlvTd)"><g><path fill="none" stroke="rgb(180,179,186)" paint-order="fill stroke markers" d=" M 68.5 0.5 L 68.5 851.5 M 68.5 0.5 L 68.5 851.5 M 158.5 0.5 L 158.5 851.5 M 248.5 0.5 L 248.5 851.5 M 338.5 0.5 L 338.5 851.5 M 428.5 0.5 L 428.5 851.5 M 608.5 0.5 L 608.5 851.5 M 698.5 0.5 L 698.5 851.5 M 788.5 0.5 L 788.5 851.5 M 878.5 0.5 L 878.5 851.5 M 968.5 0.5 L 968.5 851.5" stroke-opacity="1" stroke-linecap="round" stroke-linejoin="round" stroke-miterlimit="10"/><path fill="none" stroke="rgb(180,179,186)" paint-order="fill stroke markers" d=" M 14.5 0.5 L 14.5 851.5 M 32.5 0.5 L 32.5 851.5 M 50.5 0.5 L 50.5 851.5 M 86.5 0.5 L 86.5 851.5 M 104.5 0.5 L 104.5 851.5 M 122.5 0.5 L 122.5 851.5 M 140.5 0.5 L 140.5 851.5 M 176.5 0.5 L 176.5 851.5 M 194.5 0.5 L 194.5 851.5 M 212.5 0.5 L 212.5 851.5 M 230.5 0.5 L 230.5 851.5 M 266.5 0.5 L 266.5 851.5 M 284.5 0.5 L 284.5 851.5 M 302.5 0.5 L 302.5 851.5 M 320.5 0.5 L 320.5 851.5 M 356.5 0.5 L 356.5 851.5 M 374.5 0.5 L 374.5 851.5 M 392.5 0.5 L 392.5 851.5 M 410.5 0.5 L 410.5 851.5 M 446.5 0.5 L 446.5 851.5 M 464.5 0.5 L 464.5 851.5 M 482.5 0.5 L 482.5 851.5 M 500.5 0.5 L 500.5 851.5 M 536.5 0.5 L 536.5 851.5 M 554.5 0.5 L 554.5 851.5 M 572.5 0.5 L 572.5 851.5 M 590.5 0.5 L 590.5 851.5 M 626.5 0.5 L 626.5 851.5 M 644.5 0.5 L 644.5 851.5 M 662.5 0.5 L 662.5 851.5 M 680.5 0.5 L 680.5 851.5 M 716.5 0.5 L 716.5 851.5 M 734.5 0.5 L 734.5 851.5 M 752.5 0.5 L 752.5 851.5 M 770.5 0.5 L 770.5 851.5 M 806.5 0.5 L 806.5 851.5 M 824.5 0.5 L 824.5 851.5 M 842.5 0.5 L 842.5 851.5 M 860.5 0.5 L 860.5 851.5 M 896.5 0.5 L 896.5 851.5 M 914.5 0.5 L 914.5 851.5 M 932.5 0.5 L 932.5 851.5 M 950.5 0.5 L 950.5 851.5 M 986.5 0.5 L 986.5 851.5 M 1004.5 0.5 L 1004.5 851.5" stroke-opacity="0.23529411764705882" stroke-linecap="round" stroke-linejoin="round" stroke-miterlimit="10"/><path fill="none" stroke="rgb(180,179,186)" paint-order="fill stroke markers" d=" M 0.5 80.5 L 1012.5 80.5 M 0.5 80.5 L 1012.5 80.5 M 0.5 170.5 L 1012.5 170.5 M 0.5 260.5 L 1012.5 260.5 M 0.5 440.5 L 1012.5 440.5 M 0.5 530.5 L 1012.5 530.5 M 0.5 620.5 L 1012.5 620.5 M 0.5 710.5 L 1012.5 710.5 M 0.5 800.5 L 1012.5 800.5" stroke-opacity="1" stroke-linecap="round" stroke-linejoin="round" stroke-miterlimit="10"/><path fill="none" stroke="rgb(180,179,186)" paint-order="fill stroke markers" d=" M 0.5 8.5 L 1012.5 8.5 M 0.5 26.5 L 1012.5 26.5 M 0.5 44.5 L 1012.5 44.5 M 0.5 62.5 L 1012.5 62.5 M 0.5 98.5 L 1012.5 98.5 M 0.5 116.5 L 1012.5 116.5 M 0.5 134.5 L 1012.5 134.5 M 0.5 152.5 L 1012.5 152.5 M 0.5 188.5 L 1012.5 188.5 M 0.5 206.5 L 1012.5 206.5 M 0.5 224.5 L 1012.5 224.5 M 0.5 242.5 L 1012.5 242.5 M 0.5 278.5 L 1012.5 278.5 M 0.5 296.5 L 1012.5 296.5 M 0.5 314.5 L 1012.5 314.5 M 0.5 332.5 L 1012.5 332.5 M 0.5 368.5 L 1012.5 368.5 M 0.5 386.5 L 1012.5 386.5 M 0.5 404.5 L 1012.5 404.5 M 0.5 422.5 L 1012.5 422.5 M 0.5 458.5 L 1012.5 458.5 M 0.5 476.5 L 1012.5 476.5 M 0.5 494.5 L 1012.5 494.5 M 0.5 512.5 L 1012.5 512.5 M 0.5 548.5 L 1012.5 548.5 M 0.5 566.5 L 1012.5 566.5 M 0.5 584.5 L 1012.5 584.5 M 0.5 602.5 L 1012.5 602.5 M 0.5 638.5 L 1012.5 638.5 M 0.5 656.5 L 1012.5 656.5 M 0.5 674.5 L 1012.5 674.5 M 0.5 692.5 L 1012.5 692.5 M 0.5 728.5 L 1012.5 728.5 M 0.5 746.5 L 1012.5 746.5 M 0.5 764.5 L 1012.5 764.5 M 0.5 782.5 L 1012.5 782.5 M 0.5 818.5 L 1012.5 818.5 M 0.5 836.5 L 1012.5 836.5" stroke-opacity="0.23529411764705882" stroke-linecap="round" stroke-linejoin="round" stroke-miterlimit="10"/><path fill="none" stroke="rgb(28,28,31)" paint-order="fill stroke markers" d=" M 518.5 2.5 L 518.5 851.5" stroke-opacity="1" stroke-miterlimit="10"/><path fill="none" stroke="rgb(28,28,31)" paint-order="fill stroke markers" d=" M 518.5 1.5 L 514.5 5.5" stroke-opacity="1" stroke-miterlimit="10"/><path fill="none" stroke="rgb(28,28,31)" paint-order="fill stroke markers" d=" M 518.5 1.5 L 522.5 5.5" stroke-opacity="1" stroke-miterlimit="10"/><text fill="rgb(28,28,31)" stroke="none" font-family="geogebra-sans-serif, sans-serif" font-size="16px" font-style="normal" font-weight="normal" text-decoration="normal" x="994" y="346" text-anchor="start" dominant-baseline="alphabetic" fill-opacity="1">x</text><path fill="none" stroke="rgb(28,28,31)" paint-order="fill stroke markers" d=" M 0.5 350.5 L 1010.5 350.5" stroke-opacity="1" stroke-miterlimit="10"/><path fill="none" stroke="rgb(28,28,31)" paint-order="fill stroke markers" d=" M 1011.5 350.5 L 1007.5 346.5" stroke-opacity="1" stroke-miterlimit="10"/><path fill="none" stroke="rgb(28,28,31)" paint-order="fill stroke markers" d=" M 1011.5 350.5 L 1007.5 354.5" stroke-opacity="1" stroke-miterlimit="10"/><text fill="rgb(28,28,31)" stroke="none" font-family="geogebra-sans-serif, sans-serif" font-size="12px" font-style="normal" font-weight="normal" text-decoration="normal" x="57" y="366" text-anchor="start" dominant-baseline="alphabetic" fill-opacity="1">–2.5</text><text fill="rgb(28,28,31)" stroke="none" font-family="geogebra-sans-serif, sans-serif" font-size="12px" font-style="normal" font-weight="normal" text-decoration="normal" x="153" y="366" text-anchor="start" dominant-baseline="alphabetic" fill-opacity="1">–2</text><text fill="rgb(28,28,31)" stroke="none" font-family="geogebra-sans-serif, sans-serif" font-size="12px" font-style="normal" font-weight="normal" text-decoration="normal" x="237" y="366" text-anchor="start" dominant-baseline="alphabetic" fill-opacity="1">–1.5</text><text fill="rgb(28,28,31)" stroke="none" font-family="geogebra-sans-serif, sans-serif" font-size="12px" font-style="normal" font-weight="normal" text-decoration="normal" x="333" y="366" text-anchor="start" dominant-baseline="alphabetic" fill-opacity="1">–1</text><text fill="rgb(28,28,31)" stroke="none" font-family="geogebra-sans-serif, sans-serif" font-size="12px" font-style="normal" font-weight="normal" text-decoration="normal" x="417" y="366" text-anchor="start" dominant-baseline="alphabetic" fill-opacity="1">–0.5</text><text fill="rgb(28,28,31)" stroke="none" font-family="geogebra-sans-serif, sans-serif" font-size="12px" font-style="normal" font-weight="normal" text-decoration="normal" x="600" y="366" text-anchor="start" dominant-baseline="alphabetic" fill-opacity="1">0.5</text><text fill="rgb(28,28,31)" stroke="none" font-family="geogebra-sans-serif, sans-serif" font-size="12px" font-style="normal" font-weight="normal" text-decoration="normal" x="696" y="366" text-anchor="start" dominant-baseline="alphabetic" fill-opacity="1">1</text><text fill="rgb(28,28,31)" stroke="none" font-family="geogebra-sans-serif, sans-serif" font-size="12px" font-style="normal" font-weight="normal" text-decoration="normal" x="780" y="366" text-anchor="start" dominant-baseline="alphabetic" fill-opacity="1">1.5</text><text fill="rgb(28,28,31)" stroke="none" font-family="geogebra-sans-serif, sans-serif" font-size="12px" font-style="normal" font-weight="normal" text-decoration="normal" x="876" y="366" text-anchor="start" dominant-baseline="alphabetic" fill-opacity="1">2</text><text fill="rgb(28,28,31)" stroke="none" font-family="geogebra-sans-serif, sans-serif" font-size="12px" font-style="normal" font-weight="normal" text-decoration="normal" x="960" y="366" text-anchor="start" dominant-baseline="alphabetic" fill-opacity="1">2.5</text><text fill="rgb(28,28,31)" stroke="none" font-family="geogebra-sans-serif, sans-serif" font-size="16px" font-style="normal" font-weight="normal" text-decoration="normal" x="523" y="17" text-anchor="start" dominant-baseline="alphabetic" fill-opacity="1">y</text><text fill="rgb(28,28,31)" stroke="none" font-family="geogebra-sans-serif, sans-serif" font-size="12px" font-style="normal" font-weight="normal" text-decoration="normal" x="484" y="805" text-anchor="start" dominant-baseline="alphabetic" fill-opacity="1">–2.5</text><text fill="rgb(28,28,31)" stroke="none" font-family="geogebra-sans-serif, sans-serif" font-size="12px" font-style="normal" font-weight="normal" text-decoration="normal" x="494" y="715" text-anchor="start" dominant-baseline="alphabetic" fill-opacity="1">–2</text><text fill="rgb(28,28,31)" stroke="none" font-family="geogebra-sans-serif, sans-serif" font-size="12px" font-style="normal" font-weight="normal" text-decoration="normal" x="486" y="625" text-anchor="start" dominant-baseline="alphabetic" fill-opacity="1">–1.5</text><text fill="rgb(28,28,31)" stroke="none" font-family="geogebra-sans-serif, sans-serif" font-size="12px" font-style="normal" font-weight="normal" text-decoration="normal" x="496" y="535" text-anchor="start" dominant-baseline="alphabetic" fill-opacity="1">–1</text><text fill="rgb(28,28,31)" stroke="none" font-family="geogebra-sans-serif, sans-serif" font-size="12px" font-style="normal" font-weight="normal" text-decoration="normal" x="484" y="445" text-anchor="start" dominant-baseline="alphabetic" fill-opacity="1">–0.5</text><text fill="rgb(28,28,31)" stroke="none" font-family="geogebra-sans-serif, sans-serif" font-size="12px" font-style="normal" font-weight="normal" text-decoration="normal" x="493" y="265" text-anchor="start" dominant-baseline="alphabetic" fill-opacity="1">0.5</text><text fill="rgb(28,28,31)" stroke="none" font-family="geogebra-sans-serif, sans-serif" font-size="12px" font-style="normal" font-weight="normal" text-decoration="normal" x="506" y="175" text-anchor="start" dominant-baseline="alphabetic" fill-opacity="1">1</text><text fill="rgb(28,28,31)" stroke="none" font-family="geogebra-sans-serif, sans-serif" font-size="12px" font-style="normal" font-weight="normal" text-decoration="normal" x="496" y="85" text-anchor="start" dominant-baseline="alphabetic" fill-opacity="1">1.5</text><text fill="rgb(28,28,31)" stroke="none" font-family="geogebra-sans-serif, sans-serif" font-size="12px" font-style="normal" font-weight="normal" text-decoration="normal" x="504" y="366" text-anchor="start" dominant-baseline="alphabetic" fill-opacity="1">0</text><path fill="none" stroke="rgb(0,0,0)" paint-order="fill stroke markers" d=" M 158.680908203125 710.8251377182701 L 158.74267578125006 710.8251377182701 L 160.10156250000006 710.8251377182701 L 162.07812500000006 710.8251377182701 L 166.03125000000006 710.8251377182701 L 169.98437500000006 710.8251377182701 L 173.93750000000006 710.8251377182701 L 177.89062500000006 710.8251377182701 L 181.84375000000006 710.8251377182701 L 185.796875 710.8251377182701 L 189.75000000000006 710.8251377182701 L 193.70312500000006 710.8251377182701 L 197.65625000000006 710.8251377182701 L 201.60937500000006 710.8251377182701 L 205.56250000000006 710.8251377182701 L 209.51562500000006 710.8251377182701 L 213.46875000000006 710.8251377182701 L 217.42187500000006 710.8251377182701 L 221.37500000000006 710.8251377182701 L 225.32812500000006 710.8251377182701 L 229.28125000000006 710.8251377182701 L 233.23437500000006 710.8251377182701 L 237.18750000000006 710.8251377182701 L 241.14062500000006 710.8251377182701 L 245.09375000000006 710.8251377182701 L 249.046875 710.8251377182701 L 253.00000000000006 710.8251377182701 L 256.95312500000006 710.8251377182701 L 260.90625000000006 710.8251377182701 L 264.85937500000006 710.8251377182701 L 268.8125 710.8251377182701 L 272.76562500000006 710.8251377182701 L 276.71875 710.8251377182701 L 280.67187500000006 710.8251377182701 L 284.625 710.8251377182701 L 288.578125 710.8251377182701 L 292.53125000000006 710.8251377182701 L 296.484375 710.8251377182701 L 300.43750000000006 710.8251377182701 L 304.390625 710.8251377182701 L 308.34375000000006 710.8251377182701 L 312.296875 710.8251377182701 L 316.25 710.8251377182701 L 320.20312500000006 710.8251377182701 L 324.15625 710.8251377182701 L 328.10937500000006 710.8251377182701 L 332.0625 710.8251377182701 L 336.01562500000006 710.8251377182701 L 337.99218750000006 710.8251377182701 L 338.60986328125 710.8251377182701 M 338.671630859375 530.8210962342882 L 338.73339843750006 530.8210962342882 L 339.96875 530.8210962342882 L 343.921875 530.8210962342882 L 347.87500000000006 530.8210962342882 L 351.828125 530.8210962342882 L 355.78125000000006 530.8210962342882 L 359.734375 530.8210962342882 L 363.68750000000006 530.8210962342882 L 367.64062500000006 530.8210962342882 L 371.59375 530.8210962342882 L 375.546875 530.8210962342882 L 379.5 530.8210962342882 L 383.45312500000006 530.8210962342882 L 387.4062500000001 530.8210962342882 L 391.359375 530.8210962342882 L 395.3125 530.8210962342882 L 399.26562500000006 530.8210962342882 L 403.21875000000006 530.8210962342882 L 407.171875 530.8210962342882 L 411.125 530.8210962342882 L 415.078125 530.8210962342882 L 419.03125000000006 530.8210962342882 L 422.98437500000006 530.8210962342882 L 426.9375 530.8210962342882 L 430.890625 530.8210962342882 L 434.84375000000006 530.8210962342882 L 438.79687500000006 530.8210962342882 L 442.75000000000006 530.8210962342882 L 446.703125 530.8210962342882 L 450.65625 530.8210962342882 L 454.60937500000006 530.8210962342882 L 458.56250000000006 530.8210962342882 L 462.515625 530.8210962342882 L 466.46875 530.8210962342882 L 470.42187500000006 530.8210962342882 L 474.37500000000006 530.8210962342882 L 478.32812500000006 530.8210962342882 L 482.28125 530.8210962342882 L 486.234375 530.8210962342882 L 490.18750000000006 530.8210962342882 L 494.14062500000006 530.8210962342882 L 498.09375 530.8210962342882 L 502.046875 530.8210962342882 L 506.00000000000006 530.8210962342882 L 509.95312500000006 530.8210962342882 L 513.9062500000001 530.8210962342882 L 517.859375 530.8210962342882 L 518.6005859375 530.8210962342882 M 518.662353515625 350.8170547503064 L 518.72412109375 350.8170547503064 L 519.8359375 350.8170547503064 L 521.8125 350.8170547503064 L 525.765625 350.8170547503064 L 529.71875 350.8170547503064 L 533.671875 350.8170547503064 L 537.625 350.8170547503064 L 541.578125 350.8170547503064 L 545.53125 350.8170547503064 L 549.4843750000001 350.8170547503064 L 553.4375 350.8170547503064 L 557.390625 350.8170547503064 L 561.34375 350.8170547503064 L 565.296875 350.8170547503064 L 569.25 350.8170547503064 L 573.203125 350.8170547503064 L 577.15625 350.8170547503064 L 581.109375 350.8170547503064 L 585.0625 350.8170547503064 L 589.015625 350.8170547503064 L 592.96875 350.8170547503064 L 596.921875 350.8170547503064 L 600.875 350.8170547503064 L 604.8281250000001 350.8170547503064 L 608.78125 350.8170547503064 L 612.734375 350.8170547503064 L 616.6875 350.8170547503064 L 620.640625 350.8170547503064 L 624.59375 350.8170547503064 L 628.546875 350.8170547503064 L 632.5 350.8170547503064 L 636.453125 350.8170547503064 L 640.40625 350.8170547503064 L 644.359375 350.8170547503064 L 648.3125 350.8170547503064 L 652.265625 350.8170547503064 L 656.21875 350.8170547503064 L 660.171875 350.8170547503064 L 664.125 350.8170547503064 L 668.078125 350.8170547503064 L 672.03125 350.8170547503064 L 675.984375 350.8170547503064 L 679.9375 350.8170547503064 L 683.890625 350.8170547503064 L 687.84375 350.8170547503064 L 691.796875 350.8170547503064 L 695.75 350.8170547503064 L 697.7265625 350.8170547503064 L 698.4677734375 350.8170547503064 M 698.71484375 170.81301326632453 L 698.776611328125 170.81301326632453 L 699.703125 170.81301326632453 L 703.65625 170.81301326632453 L 707.609375 170.81301326632453 L 711.5625 170.81301326632453 L 715.515625 170.81301326632453 L 719.46875 170.81301326632453 L 723.421875 170.81301326632453 L 727.375 170.81301326632453 L 731.328125 170.81301326632453 L 735.2812500000001 170.81301326632453 L 739.2343750000001 170.81301326632453 L 743.1875 170.81301326632453 L 747.140625 170.81301326632453 L 751.09375 170.81301326632453 L 755.046875 170.81301326632453 L 759 170.81301326632453 L 762.953125 170.81301326632453 L 766.90625 170.81301326632453 L 770.8593750000001 170.81301326632453 L 774.8125000000001 170.81301326632453 L 778.765625 170.81301326632453 L 782.71875 170.81301326632453 L 786.671875 170.81301326632453 L 790.625 170.81301326632453 L 794.578125 170.81301326632453 L 798.53125 170.81301326632453 L 802.484375 170.81301326632453 L 806.4375 170.81301326632453 L 810.3906250000001 170.81301326632453 L 814.34375 170.81301326632453 L 818.296875 170.81301326632453 L 822.25 170.81301326632453 L 826.203125 170.81301326632453 L 830.15625 170.81301326632453 L 834.109375 170.81301326632453 L 838.0625 170.81301326632453 L 842.015625 170.81301326632453 L 845.96875 170.81301326632453 L 849.921875 170.81301326632453 L 853.875 170.81301326632453 L 857.828125 170.81301326632453 L 861.78125 170.81301326632453 L 865.734375 170.81301326632453 L 869.6875 170.81301326632453 L 873.640625 170.81301326632453 L 877.59375 170.81301326632453 L 878.58203125 170.81301326632453" stroke-opacity="0.6980392156862745" stroke-linecap="round" stroke-linejoin="round" stroke-miterlimit="10" stroke-width="2.5"/><text fill="rgb(0,0,0)" stroke="none" font-family="geogebra-sans-serif, sans-serif" font-size="16px" font-style="normal" font-weight="normal" text-decoration="normal" x="158" y="710" text-anchor="start" dominant-baseline="alphabetic" fill-opacity="1">c</text><path fill="none" stroke="rgb(204,0,0)" paint-order="fill stroke markers" d=" M 13.47046399068256 856 L 874.4704639906818 -5" stroke-opacity="0.6980392156862745" stroke-linejoin="round" stroke-miterlimit="10" stroke-width="2.5" stroke-dasharray="10.5,8"/><text fill="rgb(204,0,0)" stroke="none" font-family="geogebra-sans-serif, sans-serif" font-size="16px" font-style="normal" font-weight="normal" text-decoration="normal" x="36" y="843" text-anchor="start" dominant-baseline="alphabetic" fill-opacity="1">y = x</text><path fill="none" stroke="rgb(0,0,0)" paint-order="fill stroke markers" d=" M 703 350.8170547503064 C 703 353.57847849946035 700.761423749154 355.8170547503064 698 355.8170547503064 C 695.238576250846 355.8170547503064 693 353.57847849946035 693 350.8170547503064 C 693 348.05563100115245 695.238576250846 345.8170547503064 698 345.8170547503064 C 700.761423749154 345.8170547503064 703 348.05563100115245 703 350.8170547503064 Z" stroke-opacity="1" stroke-linecap="square" stroke-miterlimit="10" stroke-width="2.5"/><path fill="none" stroke="rgb(0,0,0)" paint-order="fill stroke markers" d=" M 882.985648490577 170.81301326632453 C 882.985648490577 173.5744370154785 880.747072239731 175.81301326632453 877.985648490577 175.81301326632453 C 875.224224741423 175.81301326632453 872.985648490577 173.5744370154785 872.985648490577 170.81301326632453 C 872.985648490577 168.05158951717056 875.224224741423 165.81301326632453 877.985648490577 165.81301326632453 C 880.747072239731 165.81301326632453 882.985648490577 168.05158951717056 882.985648490577 170.81301326632453 Z" stroke-opacity="1" stroke-linecap="square" stroke-miterlimit="10" stroke-width="2.5"/><path fill="none" stroke="rgb(0,0,0)" paint-order="fill stroke markers" d=" M 343 710.8251377182701 C 343 713.5865614674241 340.76142374915395 715.8251377182701 338 715.8251377182701 C 335.23857625084605 715.8251377182701 333 713.5865614674241 333 710.8251377182701 C 333 708.0637139691161 335.23857625084605 705.8251377182701 338 705.8251377182701 C 340.76142374915395 705.8251377182701 343 708.0637139691161 343 710.8251377182701 Z" stroke-opacity="1" stroke-linecap="square" stroke-miterlimit="10" stroke-width="2.5"/><path fill="none" stroke="rgb(0,0,0)" paint-order="fill stroke markers" d=" M 523 530.8210962342882 C 523 533.5825199834422 520.761423749154 535.8210962342882 518 535.8210962342882 C 515.238576250846 535.8210962342882 513 533.5825199834422 513 530.8210962342882 C 513 528.0596724851342 515.238576250846 525.8210962342882 518 525.8210962342882 C 520.761423749154 525.8210962342882 523 528.0596724851342 523 530.8210962342882 Z" stroke-opacity="1" stroke-linecap="square" stroke-miterlimit="10" stroke-width="2.5"/></g></g></svg>