<svg version="1.1" xmlns="http://www.w3.org/2000/svg" xmlns:xlink="http://www.w3.org/1999/xlink" width="1012" height="851"><defs><clipPath id="ppHzqmdFBuvp"><path fill="none" stroke="none" d=" M 0 0 L 1012 0 L 1012 851 L 0 851 L 0 0 Z"/></clipPath></defs><g transform="scale(1,1)" clip-path="url(#ppHzqmdFBuvp)"><g><path fill="none" stroke="rgb(180,179,186)" paint-order="fill stroke markers" d=" M 68.5 0.5 L 68.5 851.5 M 68.5 0.5 L 68.5 851.5 M 158.5 0.5 L 158.5 851.5 M 248.5 0.5 L 248.5 851.5 M 338.5 0.5 L 338.5 851.5 M 428.5 0.5 L 428.5 851.5 M 608.5 0.5 L 608.5 851.5 M 698.5 0.5 L 698.5 851.5 M 788.5 0.5 L 788.5 851.5 M 878.5 0.5 L 878.5 851.5 M 968.5 0.5 L 968.5 851.5" stroke-opacity="1" stroke-linecap="round" stroke-linejoin="round" stroke-miterlimit="10"/><path fill="none" stroke="rgb(180,179,186)" paint-order="fill stroke markers" d=" M 14.5 0.5 L 14.5 851.5 M 32.5 0.5 L 32.5 851.5 M 50.5 0.5 L 50.5 851.5 M 86.5 0.5 L 86.5 851.5 M 104.5 0.5 L 104.5 851.5 M 122.5 0.5 L 122.5 851.5 M 140.5 0.5 L 140.5 851.5 M 176.5 0.5 L 176.5 851.5 M 194.5 0.5 L 194.5 851.5 M 212.5 0.5 L 212.5 851.5 M 230.5 0.5 L 230.5 851.5 M 266.5 0.5 L 266.5 851.5 M 284.5 0.5 L 284.5 851.5 M 302.5 0.5 L 302.5 851.5 M 320.5 0.5 L 320.5 851.5 M 356.5 0.5 L 356.5 851.5 M 374.5 0.5 L 374.5 851.5 M 392.5 0.5 L 392.5 851.5 M 410.5 0.5 L 410.5 851.5 M 446.5 0.5 L 446.5 851.5 M 464.5 0.5 L 464.5 851.5 M 482.5 0.5 L 482.5 851.5 M 500.5 0.5 L 500.5 851.5 M 536.5 0.5 L 536.5 851.5 M 554.5 0.5 L 554.5 851.5 M 572.5 0.5 L 572.5 851.5 M 590.5 0.5 L 590.5 851.5 M 626.5 0.5 L 626.5 851.5 M 644.5 0.5 L 644.5 851.5 M 662.5 0.5 L 662.5 851.5 M 680.5 0.5 L 680.5 851.5 M 716.5 0.5 L 716.5 851.5 M 734.5 0.5 L 734.5 851.5 M 752.5 0.5 L 752.5 851.5 M 770.5 0.5 L 770.5 851.5 M 806.5 0.5 L 806.5 851.5 M 824.5 0.5 L 824.5 851.5 M 842.5 0.5 L 842.5 851.5 M 860.5 0.5 L 860.5 851.5 M 896.5 0.5 L 896.5 851.5 M 914.5 0.5 L 914.5 851.5 M 932.5 0.5 L 932.5 851.5 M 950.5 0.5 L 950.5 851.5 M 986.5 0.5 L 986.5 851.5 M 1004.5 0.5 L 1004.5 851.5" stroke-opacity="0.23529411764705882" stroke-linecap="round" stroke-linejoin="round" stroke-miterlimit="10"/><path fill="none" stroke="rgb(180,179,186)" paint-order="fill stroke markers" d=" M 0.5 74.5 L 1012.5 74.5 M 0.5 74.5 L 1012.5 74.5 M 0.5 164.5 L 1012.5 164.5 M 0.5 254.5 L 1012.5 254.5 M 0.5 344.5 L 1012.5 344.5 M 0.5 434.5 L 1012.5 434.5 M 0.5 614.5 L 1012.5 614.5 M 0.5 704.5 L 1012.5 704.5 M 0.5 794.5 L 1012.5 794.5" stroke-opacity="1" stroke-linecap="round" stroke-linejoin="round" stroke-miterlimit="10"/><path fill="none" stroke="rgb(180,179,186)" paint-order="fill stroke markers" d=" M 0.5 2.5 L 1012.5 2.5 M 0.5 20.5 L 1012.5 20.5 M 0.5 38.5 L 1012.5 38.5 M 0.5 56.5 L 1012.5 56.5 M 0.5 92.5 L 1012.5 92.5 M 0.5 110.5 L 1012.5 110.5 M 0.5 128.5 L 1012.5 128.5 M 0.5 146.5 L 1012.5 146.5 M 0.5 182.5 L 1012.5 182.5 M 0.5 200.5 L 1012.5 200.5 M 0.5 218.5 L 1012.5 218.5 M 0.5 236.5 L 1012.5 236.5 M 0.5 272.5 L 1012.5 272.5 M 0.5 290.5 L 1012.5 290.5 M 0.5 308.5 L 1012.5 308.5 M 0.5 326.5 L 1012.5 326.5 M 0.5 362.5 L 1012.5 362.5 M 0.5 380.5 L 1012.5 380.5 M 0.5 398.5 L 1012.5 398.5 M 0.5 416.5 L 1012.5 416.5 M 0.5 452.5 L 1012.5 452.5 M 0.5 470.5 L 1012.5 470.5 M 0.5 488.5 L 1012.5 488.5 M 0.5 506.5 L 1012.5 506.5 M 0.5 542.5 L 1012.5 542.5 M 0.5 560.5 L 1012.5 560.5 M 0.5 578.5 L 1012.5 578.5 M 0.5 596.5 L 1012.5 596.5 M 0.5 632.5 L 1012.5 632.5 M 0.5 650.5 L 1012.5 650.5 M 0.5 668.5 L 1012.5 668.5 M 0.5 686.5 L 1012.5 686.5 M 0.5 722.5 L 1012.5 722.5 M 0.5 740.5 L 1012.5 740.5 M 0.5 758.5 L 1012.5 758.5 M 0.5 776.5 L 1012.5 776.5 M 0.5 812.5 L 1012.5 812.5 M 0.5 830.5 L 1012.5 830.5 M 0.5 848.5 L 1012.5 848.5" stroke-opacity="0.23529411764705882" stroke-linecap="round" stroke-linejoin="round" stroke-miterlimit="10"/><path fill="none" stroke="rgb(28,28,31)" paint-order="fill stroke markers" d=" M 518.5 2.5 L 518.5 851.5" stroke-opacity="1" stroke-miterlimit="10"/><path fill="none" stroke="rgb(28,28,31)" paint-order="fill stroke markers" d=" M 518.5 1.5 L 514.5 5.5" stroke-opacity="1" stroke-miterlimit="10"/><path fill="none" stroke="rgb(28,28,31)" paint-order="fill stroke markers" d=" M 518.5 1.5 L 522.5 5.5" stroke-opacity="1" stroke-miterlimit="10"/><text fill="rgb(28,28,31)" stroke="none" font-family="geogebra-sans-serif, sans-serif" font-size="16px" font-style="normal" font-weight="normal" text-decoration="normal" x="994" y="520" text-anchor="start" dominant-baseline="alphabetic" fill-opacity="1">x</text><path fill="none" stroke="rgb(28,28,31)" paint-order="fill stroke markers" d=" M 0.5 524.5 L 1010.5 524.5" stroke-opacity="1" stroke-miterlimit="10"/><path fill="none" stroke="rgb(28,28,31)" paint-order="fill stroke markers" d=" M 1011.5 524.5 L 1007.5 520.5" stroke-opacity="1" stroke-miterlimit="10"/><path fill="none" stroke="rgb(28,28,31)" paint-order="fill stroke markers" d=" M 1011.5 524.5 L 1007.5 528.5" stroke-opacity="1" stroke-miterlimit="10"/><text fill="rgb(28,28,31)" stroke="none" font-family="geogebra-sans-serif, sans-serif" font-size="12px" font-style="normal" font-weight="normal" text-decoration="normal" x="57" y="540" text-anchor="start" dominant-baseline="alphabetic" fill-opacity="1">–2.5</text><text fill="rgb(28,28,31)" stroke="none" font-family="geogebra-sans-serif, sans-serif" font-size="12px" font-style="normal" font-weight="normal" text-decoration="normal" x="153" y="540" text-anchor="start" dominant-baseline="alphabetic" fill-opacity="1">–2</text><text fill="rgb(28,28,31)" stroke="none" font-family="geogebra-sans-serif, sans-serif" font-size="12px" font-style="normal" font-weight="normal" text-decoration="normal" x="237" y="540" text-anchor="start" dominant-baseline="alphabetic" fill-opacity="1">–1.5</text><text fill="rgb(28,28,31)" stroke="none" font-family="geogebra-sans-serif, sans-serif" font-size="12px" font-style="normal" font-weight="normal" text-decoration="normal" x="333" y="540" text-anchor="start" dominant-baseline="alphabetic" fill-opacity="1">–1</text><text fill="rgb(28,28,31)" stroke="none" font-family="geogebra-sans-serif, sans-serif" font-size="12px" font-style="normal" font-weight="normal" text-decoration="normal" x="417" y="540" text-anchor="start" dominant-baseline="alphabetic" fill-opacity="1">–0.5</text><text fill="rgb(28,28,31)" stroke="none" font-family="geogebra-sans-serif, sans-serif" font-size="12px" font-style="normal" font-weight="normal" text-decoration="normal" x="600" y="540" text-anchor="start" dominant-baseline="alphabetic" fill-opacity="1">0.5</text><text fill="rgb(28,28,31)" stroke="none" font-family="geogebra-sans-serif, sans-serif" font-size="12px" font-style="normal" font-weight="normal" text-decoration="normal" x="696" y="540" text-anchor="start" dominant-baseline="alphabetic" fill-opacity="1">1</text><text fill="rgb(28,28,31)" stroke="none" font-family="geogebra-sans-serif, sans-serif" font-size="12px" font-style="normal" font-weight="normal" text-decoration="normal" x="780" y="540" text-anchor="start" dominant-baseline="alphabetic" fill-opacity="1">1.5</text><text fill="rgb(28,28,31)" stroke="none" font-family="geogebra-sans-serif, sans-serif" font-size="12px" font-style="normal" font-weight="normal" text-decoration="normal" x="876" y="540" text-anchor="start" dominant-baseline="alphabetic" fill-opacity="1">2</text><text fill="rgb(28,28,31)" stroke="none" font-family="geogebra-sans-serif, sans-serif" font-size="12px" font-style="normal" font-weight="normal" text-decoration="normal" x="960" y="540" text-anchor="start" dominant-baseline="alphabetic" fill-opacity="1">2.5</text><text fill="rgb(28,28,31)" stroke="none" font-family="geogebra-sans-serif, sans-serif" font-size="16px" font-style="normal" font-weight="normal" text-decoration="normal" x="523" y="17" text-anchor="start" dominant-baseline="alphabetic" fill-opacity="1">y</text><text fill="rgb(28,28,31)" stroke="none" font-family="geogebra-sans-serif, sans-serif" font-size="12px" font-style="normal" font-weight="normal" text-decoration="normal" x="486" y="799" text-anchor="start" dominant-baseline="alphabetic" fill-opacity="1">–1.5</text><text fill="rgb(28,28,31)" stroke="none" font-family="geogebra-sans-serif, sans-serif" font-size="12px" font-style="normal" font-weight="normal" text-decoration="normal" x="496" y="709" text-anchor="start" dominant-baseline="alphabetic" fill-opacity="1">–1</text><text fill="rgb(28,28,31)" stroke="none" font-family="geogebra-sans-serif, sans-serif" font-size="12px" font-style="normal" font-weight="normal" text-decoration="normal" x="484" y="619" text-anchor="start" dominant-baseline="alphabetic" fill-opacity="1">–0.5</text><text fill="rgb(28,28,31)" stroke="none" font-family="geogebra-sans-serif, sans-serif" font-size="12px" font-style="normal" font-weight="normal" text-decoration="normal" x="493" y="439" text-anchor="start" dominant-baseline="alphabetic" fill-opacity="1">0.5</text><text fill="rgb(28,28,31)" stroke="none" font-family="geogebra-sans-serif, sans-serif" font-size="12px" font-style="normal" font-weight="normal" text-decoration="normal" x="506" y="349" text-anchor="start" dominant-baseline="alphabetic" fill-opacity="1">1</text><text fill="rgb(28,28,31)" stroke="none" font-family="geogebra-sans-serif, sans-serif" font-size="12px" font-style="normal" font-weight="normal" text-decoration="normal" x="496" y="259" text-anchor="start" dominant-baseline="alphabetic" fill-opacity="1">1.5</text><text fill="rgb(28,28,31)" stroke="none" font-family="geogebra-sans-serif, sans-serif" font-size="12px" font-style="normal" font-weight="normal" text-decoration="normal" x="504" y="169" text-anchor="start" dominant-baseline="alphabetic" fill-opacity="1">2</text><text fill="rgb(28,28,31)" stroke="none" font-family="geogebra-sans-serif, sans-serif" font-size="12px" font-style="normal" font-weight="normal" text-decoration="normal" x="493" y="79" text-anchor="start" dominant-baseline="alphabetic" fill-opacity="1">2.5</text><text fill="rgb(28,28,31)" stroke="none" font-family="geogebra-sans-serif, sans-serif" font-size="12px" font-style="normal" font-weight="normal" text-decoration="normal" x="504" y="540" text-anchor="start" dominant-baseline="alphabetic" fill-opacity="1">0</text><path fill="none" stroke="rgb(0,0,0)" paint-order="fill stroke markers" d=" M 158.680908203125 704.8210962342882 L 158.74267578125006 704.8210962342882 L 160.10156250000006 704.8210962342882 L 162.07812500000006 704.8210962342882 L 166.03125000000006 704.8210962342882 L 169.98437500000006 704.8210962342882 L 173.93750000000006 704.8210962342882 L 177.89062500000006 704.8210962342882 L 181.84375000000006 704.8210962342882 L 185.796875 704.8210962342882 L 189.75000000000006 704.8210962342882 L 193.70312500000006 704.8210962342882 L 197.65625000000006 704.8210962342882 L 201.60937500000006 704.8210962342882 L 205.56250000000006 704.8210962342882 L 209.51562500000006 704.8210962342882 L 213.46875000000006 704.8210962342882 L 217.42187500000006 704.8210962342882 L 221.37500000000006 704.8210962342882 L 225.32812500000006 704.8210962342882 L 229.28125000000006 704.8210962342882 L 233.23437500000006 704.8210962342882 L 237.18750000000006 704.8210962342882 L 241.14062500000006 704.8210962342882 L 245.09375000000006 704.8210962342882 L 249.046875 704.8210962342882 L 253.00000000000006 704.8210962342882 L 256.95312500000006 704.8210962342882 L 260.90625000000006 704.8210962342882 L 264.85937500000006 704.8210962342882 L 268.8125 704.8210962342882 L 272.76562500000006 704.8210962342882 L 276.71875 704.8210962342882 L 280.67187500000006 704.8210962342882 L 284.625 704.8210962342882 L 288.578125 704.8210962342882 L 292.53125000000006 704.8210962342882 L 296.484375 704.8210962342882 L 300.43750000000006 704.8210962342882 L 304.390625 704.8210962342882 L 308.34375000000006 704.8210962342882 L 312.296875 704.8210962342882 L 316.25 704.8210962342882 L 320.20312500000006 704.8210962342882 L 324.15625 704.8210962342882 L 328.10937500000006 704.8210962342882 L 332.0625 704.8210962342882 L 336.01562500000006 704.8210962342882 L 337.99218750000006 704.8210962342882 L 338.60986328125 704.8210962342882 M 338.671630859375 524.8170547503064 L 338.73339843750006 524.8170547503064 L 339.96875 524.8170547503064 L 343.921875 524.8170547503064 L 347.87500000000006 524.8170547503064 L 351.828125 524.8170547503064 L 355.78125000000006 524.8170547503064 L 359.734375 524.8170547503064 L 363.68750000000006 524.8170547503064 L 367.64062500000006 524.8170547503064 L 371.59375 524.8170547503064 L 375.546875 524.8170547503064 L 379.5 524.8170547503064 L 383.45312500000006 524.8170547503064 L 387.4062500000001 524.8170547503064 L 391.359375 524.8170547503064 L 395.3125 524.8170547503064 L 399.26562500000006 524.8170547503064 L 403.21875000000006 524.8170547503064 L 407.171875 524.8170547503064 L 411.125 524.8170547503064 L 415.078125 524.8170547503064 L 419.03125000000006 524.8170547503064 L 422.98437500000006 524.8170547503064 L 426.9375 524.8170547503064 L 430.890625 524.8170547503064 L 434.84375000000006 524.8170547503064 L 438.79687500000006 524.8170547503064 L 442.75000000000006 524.8170547503064 L 446.703125 524.8170547503064 L 450.65625 524.8170547503064 L 454.60937500000006 524.8170547503064 L 458.56250000000006 524.8170547503064 L 462.515625 524.8170547503064 L 466.46875 524.8170547503064 L 470.42187500000006 524.8170547503064 L 474.37500000000006 524.8170547503064 L 478.32812500000006 524.8170547503064 L 482.28125 524.8170547503064 L 486.234375 524.8170547503064 L 490.18750000000006 524.8170547503064 L 494.14062500000006 524.8170547503064 L 498.09375 524.8170547503064 L 502.046875 524.8170547503064 L 506.00000000000006 524.8170547503064 L 509.95312500000006 524.8170547503064 L 513.9062500000001 524.8170547503064 L 517.859375 524.8170547503064 L 518.6005859375 524.8170547503064 M 518.662353515625 344.81301326632456 L 518.72412109375 344.81301326632456 L 519.8359375 344.81301326632456 L 521.8125 344.81301326632456 L 525.765625 344.81301326632456 L 529.71875 344.81301326632456 L 533.671875 344.81301326632456 L 537.625 344.81301326632456 L 541.578125 344.81301326632456 L 545.53125 344.81301326632456 L 549.4843750000001 344.81301326632456 L 553.4375 344.81301326632456 L 557.390625 344.81301326632456 L 561.34375 344.81301326632456 L 565.296875 344.81301326632456 L 569.25 344.81301326632456 L 573.203125 344.81301326632456 L 577.15625 344.81301326632456 L 581.109375 344.81301326632456 L 585.0625 344.81301326632456 L 589.015625 344.81301326632456 L 592.96875 344.81301326632456 L 596.921875 344.81301326632456 L 600.875 344.81301326632456 L 604.8281250000001 344.81301326632456 L 608.78125 344.81301326632456 L 612.734375 344.81301326632456 L 616.6875 344.81301326632456 L 620.640625 344.81301326632456 L 624.59375 344.81301326632456 L 628.546875 344.81301326632456 L 632.5 344.81301326632456 L 636.453125 344.81301326632456 L 640.40625 344.81301326632456 L 644.359375 344.81301326632456 L 648.3125 344.81301326632456 L 652.265625 344.81301326632456 L 656.21875 344.81301326632456 L 660.171875 344.81301326632456 L 664.125 344.81301326632456 L 668.078125 344.81301326632456 L 672.03125 344.81301326632456 L 675.984375 344.81301326632456 L 679.9375 344.81301326632456 L 683.890625 344.81301326632456 L 687.84375 344.81301326632456 L 691.796875 344.81301326632456 L 695.75 344.81301326632456 L 697.7265625 344.81301326632456 L 698.4677734375 344.81301326632456 M 698.71484375 164.80897178234267 L 698.776611328125 164.80897178234267 L 699.703125 164.80897178234267 L 703.65625 164.80897178234267 L 707.609375 164.80897178234267 L 711.5625 164.80897178234267 L 715.515625 164.80897178234267 L 719.46875 164.80897178234267 L 723.421875 164.80897178234267 L 727.375 164.80897178234267 L 731.328125 164.80897178234267 L 735.2812500000001 164.80897178234267 L 739.2343750000001 164.80897178234267 L 743.1875 164.80897178234267 L 747.140625 164.80897178234267 L 751.09375 164.80897178234267 L 755.046875 164.80897178234267 L 759 164.80897178234267 L 762.953125 164.80897178234267 L 766.90625 164.80897178234267 L 770.8593750000001 164.80897178234267 L 774.8125000000001 164.80897178234267 L 778.765625 164.80897178234267 L 782.71875 164.80897178234267 L 786.671875 164.80897178234267 L 790.625 164.80897178234267 L 794.578125 164.80897178234267 L 798.53125 164.80897178234267 L 802.484375 164.80897178234267 L 806.4375 164.80897178234267 L 810.3906250000001 164.80897178234267 L 814.34375 164.80897178234267 L 818.296875 164.80897178234267 L 822.25 164.80897178234267 L 826.203125 164.80897178234267 L 830.15625 164.80897178234267 L 834.109375 164.80897178234267 L 838.0625 164.80897178234267 L 842.015625 164.80897178234267 L 845.96875 164.80897178234267 L 849.921875 164.80897178234267 L 853.875 164.80897178234267 L 857.828125 164.80897178234267 L 861.78125 164.80897178234267 L 865.734375 164.80897178234267 L 869.6875 164.80897178234267 L 873.640625 164.80897178234267 L 877.59375 164.80897178234267 L 878.58203125 164.80897178234267" stroke-opacity="0.6980392156862745" stroke-linecap="round" stroke-linejoin="round" stroke-miterlimit="10" stroke-width="2.5"/><text fill="rgb(0,0,0)" stroke="none" font-family="geogebra-sans-serif, sans-serif" font-size="16px" font-style="normal" font-weight="normal" text-decoration="normal" x="158" y="704" text-anchor="start" dominant-baseline="alphabetic" fill-opacity="1">c</text><path fill="none" stroke="rgb(204,0,0)" paint-order="fill stroke markers" d=" M 187.47046399068233 856 L 1017 26.470463990681562" stroke-opacity="0.6980392156862745" stroke-linejoin="round" stroke-miterlimit="10" stroke-width="2.5" stroke-dasharray="10.5,8"/><text fill="rgb(204,0,0)" stroke="none" font-family="geogebra-sans-serif, sans-serif" font-size="16px" font-style="normal" font-weight="normal" text-decoration="normal" x="210" y="843" text-anchor="start" dominant-baseline="alphabetic" fill-opacity="1">y = x</text><path fill="none" stroke="rgb(0,0,0)" paint-order="fill stroke markers" d=" M 342.80267414089235 524.8170547503064 C 342.80267414089235 527.5784784994604 340.5640978900463 529.8170547503064 337.80267414089235 529.8170547503064 C 335.0412503917384 529.8170547503064 332.80267414089235 527.5784784994604 332.80267414089235 524.8170547503064 C 332.80267414089235 522.0556310011524 335.0412503917384 519.8170547503064 337.80267414089235 519.8170547503064 C 340.5640978900463 519.8170547503064 342.80267414089235 522.0556310011524 342.80267414089235 524.8170547503064 Z" stroke-opacity="1" stroke-linecap="square" stroke-miterlimit="10" stroke-width="2.5"/><path fill="none" stroke="rgb(0,0,0)" paint-order="fill stroke markers" d=" M 523.7823441185927 344.81301326632456 C 523.7823441185927 347.5744370154785 521.5437678677467 349.81301326632456 518.7823441185927 349.81301326632456 C 516.0209203694387 349.81301326632456 513.7823441185927 347.5744370154785 513.7823441185927 344.81301326632456 C 513.7823441185927 342.0515895171706 516.0209203694387 339.81301326632456 518.7823441185927 339.81301326632456 C 521.5437678677467 339.81301326632456 523.7823441185927 342.0515895171706 523.7823441185927 344.81301326632456 Z" stroke-opacity="1" stroke-linecap="square" stroke-miterlimit="10" stroke-width="2.5"/><path fill="none" stroke="rgb(0,0,0)" paint-order="fill stroke markers" d=" M 882.985648490577 164.80897178234267 C 882.985648490577 167.57039553149664 880.747072239731 169.80897178234267 877.985648490577 169.80897178234267 C 875.224224741423 169.80897178234267 872.985648490577 167.57039553149664 872.985648490577 164.80897178234267 C 872.985648490577 162.0475480331887 875.224224741423 159.80897178234267 877.985648490577 159.80897178234267 C 880.747072239731 159.80897178234267 882.985648490577 162.0475480331887 882.985648490577 164.80897178234267 Z" stroke-opacity="1" stroke-linecap="square" stroke-miterlimit="10" stroke-width="2.5"/><path fill="none" stroke="rgb(0,0,0)" paint-order="fill stroke markers" d=" M 163.66036121880313 704.8210962342882 C 163.66036121880313 707.5825199834422 161.4217849679571 709.8210962342882 158.66036121880313 709.8210962342882 C 155.89893746964916 709.8210962342882 153.66036121880313 707.5825199834422 153.66036121880313 704.8210962342882 C 153.66036121880313 702.0596724851342 155.89893746964916 699.8210962342882 158.66036121880313 699.8210962342882 C 161.4217849679571 699.8210962342882 163.66036121880313 702.0596724851342 163.66036121880313 704.8210962342882 Z" stroke-opacity="1" stroke-linecap="square" stroke-miterlimit="10" stroke-width="2.5"/></g></g></svg>