<?xml version="1.0" encoding="utf-8" standalone="no"?>
<!DOCTYPE svg PUBLIC "-//W3C//DTD SVG 1.1//EN"
  "http://www.w3.org/Graphics/SVG/1.1/DTD/svg11.dtd">
<svg xmlns:xlink="http://www.w3.org/1999/xlink" width="341.264303pt" height="424.392187pt" viewBox="0 0 341.264303 424.392187" xmlns="http://www.w3.org/2000/svg" version="1.1">
 <metadata>
  <rdf:RDF xmlns:dc="http://purl.org/dc/elements/1.1/" xmlns:cc="http://creativecommons.org/ns#" xmlns:rdf="http://www.w3.org/1999/02/22-rdf-syntax-ns#">
   <cc:Work>
    <dc:type rdf:resource="http://purl.org/dc/dcmitype/StillImage"/>
    <dc:date>2026-08-25T16:57:10.944302</dc:date>
    <dc:format>image/svg+xml</dc:format>
    <dc:creator>
     <cc:Agent>
      <dc:title>Matplotlib v3.11.1, https://matplotlib.org/</dc:title>
     </cc:Agent>
    </dc:creator>
   </cc:Work>
  </rdf:RDF>
 </metadata>
 <defs>
  <style type="text/css">*{stroke-linejoin: round; stroke-linecap: butt}</style>
 </defs>
 <g id="figure_1">
  <g id="patch_1">
   <path d="M 0 424.392187 
L 341.264303 424.392187 
L 341.264303 0 
L 0 0 
z
" style="fill: #ffffff"/>
  </g>
  <g id="axes_1">
   <g id="patch_2">
    <path d="M 38.346953 385.556445 
L 331.283835 385.556445 
L 331.283835 34.032187 
L 38.346953 34.032187 
z
" style="fill: #ffffff"/>
   </g>
   <g id="matplotlib.axis_1">
    <g id="xtick_1">
     <g id="line2d_1">
      <path d="M 38.346953 385.556445 
L 38.346953 34.032187 
" clip-path="url(#p72d5628afd)" style="fill: none; stroke-dasharray: 2.96,1.28; stroke-dashoffset: 0; stroke: #b0b0b0; stroke-opacity: 0.3; stroke-width: 0.8"/>
     </g>
     <g id="line2d_2">
      <defs>
       <path id="m9fea259f43" d="M 0 0 
L 0 3.5 
" style="stroke: #000000; stroke-width: 0.8"/>
      </defs>
      <g>
       <use xlink:href="#m9fea259f43" x="38.346953" y="385.556445" style="stroke: #000000; stroke-width: 0.8"/>
      </g>
     </g>
     <g id="text_1">
      <!-- -1 -->
      <g transform="translate(33.901641 399.836719) scale(0.1 -0.1)">
       <defs>
        <path id="ArialUnicodeMS-10" d="M 1925 1375 
L 206 1375 
L 206 1941 
L 1925 1941 
L 1925 1375 
z
" transform="scale(0.015625)"/>
        <path id="ArialUnicodeMS-14" d="M 2400 0 
L 1838 0 
L 1838 3584 
Q 1416 3184 709 2906 
L 709 3450 
Q 1681 3916 2034 4603 
L 2400 4603 
L 2400 0 
z
" transform="scale(0.015625)"/>
       </defs>
       <use xlink:href="#ArialUnicodeMS-10"/>
       <use xlink:href="#ArialUnicodeMS-14" transform="translate(33.296875 0)"/>
      </g>
     </g>
    </g>
    <g id="xtick_2">
     <g id="line2d_3">
      <path d="M 96.934329 385.556445 
L 96.934329 34.032187 
" clip-path="url(#p72d5628afd)" style="fill: none; stroke-dasharray: 2.96,1.28; stroke-dashoffset: 0; stroke: #b0b0b0; stroke-opacity: 0.3; stroke-width: 0.8"/>
     </g>
     <g id="line2d_4">
      <g>
       <use xlink:href="#m9fea259f43" x="96.934329" y="385.556445" style="stroke: #000000; stroke-width: 0.8"/>
      </g>
     </g>
     <g id="text_2">
      <!-- 0 -->
      <g transform="translate(94.153861 399.836719) scale(0.1 -0.1)">
       <defs>
        <path id="ArialUnicodeMS-13" d="M 1778 4603 
Q 3272 4603 3272 2259 
Q 3272 1075 2886 498 
Q 2500 -78 1778 -78 
Q 288 -78 288 2259 
Q 288 3444 673 4023 
Q 1059 4603 1778 4603 
z
M 1778 384 
Q 2231 384 2462 823 
Q 2694 1263 2694 2259 
Q 2694 2953 2592 3351 
Q 2491 3750 2286 3945 
Q 2081 4141 1772 4141 
Q 1319 4141 1091 3694 
Q 863 3247 863 2259 
Q 863 1575 966 1175 
Q 1069 775 1272 579 
Q 1475 384 1778 384 
z
" transform="scale(0.015625)"/>
       </defs>
       <use xlink:href="#ArialUnicodeMS-13"/>
      </g>
     </g>
    </g>
    <g id="xtick_3">
     <g id="line2d_5">
      <path d="M 155.521706 385.556445 
L 155.521706 34.032187 
" clip-path="url(#p72d5628afd)" style="fill: none; stroke-dasharray: 2.96,1.28; stroke-dashoffset: 0; stroke: #b0b0b0; stroke-opacity: 0.3; stroke-width: 0.8"/>
     </g>
     <g id="line2d_6">
      <g>
       <use xlink:href="#m9fea259f43" x="155.521706" y="385.556445" style="stroke: #000000; stroke-width: 0.8"/>
      </g>
     </g>
     <g id="text_3">
      <!-- 1 -->
      <g transform="translate(152.741237 399.836719) scale(0.1 -0.1)">
       <use xlink:href="#ArialUnicodeMS-14"/>
      </g>
     </g>
    </g>
    <g id="xtick_4">
     <g id="line2d_7">
      <path d="M 214.109082 385.556445 
L 214.109082 34.032187 
" clip-path="url(#p72d5628afd)" style="fill: none; stroke-dasharray: 2.96,1.28; stroke-dashoffset: 0; stroke: #b0b0b0; stroke-opacity: 0.3; stroke-width: 0.8"/>
     </g>
     <g id="line2d_8">
      <g>
       <use xlink:href="#m9fea259f43" x="214.109082" y="385.556445" style="stroke: #000000; stroke-width: 0.8"/>
      </g>
     </g>
     <g id="text_4">
      <!-- 2 -->
      <g transform="translate(211.328613 399.836719) scale(0.1 -0.1)">
       <defs>
        <path id="ArialUnicodeMS-15" d="M 3231 0 
L 197 0 
Q 197 388 467 784 
Q 738 1181 1478 1778 
Q 1931 2141 2287 2539 
Q 2644 2938 2644 3341 
Q 2644 3688 2398 3914 
Q 2153 4141 1778 4141 
Q 1400 4141 1144 3908 
Q 888 3675 884 3213 
L 306 3278 
Q 359 3922 764 4262 
Q 1169 4603 1791 4603 
Q 2466 4603 2842 4229 
Q 3219 3856 3219 3328 
Q 3219 2888 2901 2436 
Q 2584 1984 1638 1228 
Q 1141 831 978 544 
L 3231 544 
L 3231 0 
z
" transform="scale(0.015625)"/>
       </defs>
       <use xlink:href="#ArialUnicodeMS-15"/>
      </g>
     </g>
    </g>
    <g id="xtick_5">
     <g id="line2d_9">
      <path d="M 272.696458 385.556445 
L 272.696458 34.032187 
" clip-path="url(#p72d5628afd)" style="fill: none; stroke-dasharray: 2.96,1.28; stroke-dashoffset: 0; stroke: #b0b0b0; stroke-opacity: 0.3; stroke-width: 0.8"/>
     </g>
     <g id="line2d_10">
      <g>
       <use xlink:href="#m9fea259f43" x="272.696458" y="385.556445" style="stroke: #000000; stroke-width: 0.8"/>
      </g>
     </g>
     <g id="text_5">
      <!-- 3 -->
      <g transform="translate(269.91599 399.836719) scale(0.1 -0.1)">
       <defs>
        <path id="ArialUnicodeMS-16" d="M 2425 2478 
Q 2850 2397 3067 2067 
Q 3284 1738 3284 1350 
Q 3284 725 2829 323 
Q 2375 -78 1741 -78 
Q 1134 -78 740 275 
Q 347 628 281 1209 
L 844 1288 
Q 928 834 1151 609 
Q 1375 384 1741 384 
Q 2134 384 2407 661 
Q 2681 938 2681 1338 
Q 2681 1722 2432 1975 
Q 2184 2228 1784 2228 
Q 1622 2228 1388 2169 
L 1453 2663 
Q 1678 2663 1809 2684 
Q 1941 2706 2103 2790 
Q 2266 2875 2372 3033 
Q 2478 3191 2478 3425 
Q 2478 3766 2251 3953 
Q 2025 4141 1728 4141 
Q 1388 4141 1173 3925 
Q 959 3709 903 3309 
L 341 3413 
Q 450 4009 823 4306 
Q 1197 4603 1716 4603 
Q 2288 4603 2670 4258 
Q 3053 3913 3053 3413 
Q 3053 2772 2425 2491 
L 2425 2478 
z
" transform="scale(0.015625)"/>
       </defs>
       <use xlink:href="#ArialUnicodeMS-16"/>
      </g>
     </g>
    </g>
    <g id="xtick_6">
     <g id="line2d_11">
      <path d="M 331.283835 385.556445 
L 331.283835 34.032187 
" clip-path="url(#p72d5628afd)" style="fill: none; stroke-dasharray: 2.96,1.28; stroke-dashoffset: 0; stroke: #b0b0b0; stroke-opacity: 0.3; stroke-width: 0.8"/>
     </g>
     <g id="line2d_12">
      <g>
       <use xlink:href="#m9fea259f43" x="331.283835" y="385.556445" style="stroke: #000000; stroke-width: 0.8"/>
      </g>
     </g>
     <g id="text_6">
      <!-- 4 -->
      <g transform="translate(328.503366 399.836719) scale(0.1 -0.1)">
       <defs>
        <path id="ArialUnicodeMS-17" d="M 3263 1094 
L 2644 1094 
L 2644 0 
L 2081 0 
L 2081 1094 
L 97 1094 
L 97 1613 
L 2181 4581 
L 2644 4581 
L 2644 1613 
L 3263 1613 
L 3263 1094 
z
M 2081 1613 
L 2081 3681 
L 2069 3681 
L 647 1613 
L 2081 1613 
z
" transform="scale(0.015625)"/>
       </defs>
       <use xlink:href="#ArialUnicodeMS-17"/>
      </g>
     </g>
    </g>
    <g id="text_7">
     <!-- x -->
     <g transform="translate(181.815394 414.672656) scale(0.12 -0.12)">
      <defs>
       <path id="ArialUnicodeMS-5b" d="M 3156 0 
L 2463 0 
L 1600 1313 
L 728 0 
L 44 0 
L 1259 1728 
L 141 3316 
L 838 3316 
Q 1519 2288 1581 2169 
L 2394 3316 
L 3066 3316 
L 1919 1759 
L 3156 0 
z
" transform="scale(0.015625)"/>
      </defs>
      <use xlink:href="#ArialUnicodeMS-5b"/>
     </g>
    </g>
   </g>
   <g id="matplotlib.axis_2">
    <g id="ytick_1">
     <g id="line2d_13">
      <path d="M 38.346953 385.556445 
L 331.283835 385.556445 
" clip-path="url(#p72d5628afd)" style="fill: none; stroke-dasharray: 2.96,1.28; stroke-dashoffset: 0; stroke: #b0b0b0; stroke-opacity: 0.3; stroke-width: 0.8"/>
     </g>
     <g id="line2d_14">
      <defs>
       <path id="m6454ffbc91" d="M 0 0 
L -3.5 0 
" style="stroke: #000000; stroke-width: 0.8"/>
      </defs>
      <g>
       <use xlink:href="#m6454ffbc91" x="38.346953" y="385.556445" style="stroke: #000000; stroke-width: 0.8"/>
      </g>
     </g>
     <g id="text_8">
      <!-- -1 -->
      <g transform="translate(22.456328 389.196582) scale(0.1 -0.1)">
       <use xlink:href="#ArialUnicodeMS-10"/>
       <use xlink:href="#ArialUnicodeMS-14" transform="translate(33.296875 0)"/>
      </g>
     </g>
    </g>
    <g id="ytick_2">
     <g id="line2d_15">
      <path d="M 38.346953 326.969069 
L 331.283835 326.969069 
" clip-path="url(#p72d5628afd)" style="fill: none; stroke-dasharray: 2.96,1.28; stroke-dashoffset: 0; stroke: #b0b0b0; stroke-opacity: 0.3; stroke-width: 0.8"/>
     </g>
     <g id="line2d_16">
      <g>
       <use xlink:href="#m6454ffbc91" x="38.346953" y="326.969069" style="stroke: #000000; stroke-width: 0.8"/>
      </g>
     </g>
     <g id="text_9">
      <!-- 0 -->
      <g transform="translate(25.786016 330.609206) scale(0.1 -0.1)">
       <use xlink:href="#ArialUnicodeMS-13"/>
      </g>
     </g>
    </g>
    <g id="ytick_3">
     <g id="line2d_17">
      <path d="M 38.346953 268.381693 
L 331.283835 268.381693 
" clip-path="url(#p72d5628afd)" style="fill: none; stroke-dasharray: 2.96,1.28; stroke-dashoffset: 0; stroke: #b0b0b0; stroke-opacity: 0.3; stroke-width: 0.8"/>
     </g>
     <g id="line2d_18">
      <g>
       <use xlink:href="#m6454ffbc91" x="38.346953" y="268.381693" style="stroke: #000000; stroke-width: 0.8"/>
      </g>
     </g>
     <g id="text_10">
      <!-- 1 -->
      <g transform="translate(25.786016 272.021829) scale(0.1 -0.1)">
       <use xlink:href="#ArialUnicodeMS-14"/>
      </g>
     </g>
    </g>
    <g id="ytick_4">
     <g id="line2d_19">
      <path d="M 38.346953 209.794316 
L 331.283835 209.794316 
" clip-path="url(#p72d5628afd)" style="fill: none; stroke-dasharray: 2.96,1.28; stroke-dashoffset: 0; stroke: #b0b0b0; stroke-opacity: 0.3; stroke-width: 0.8"/>
     </g>
     <g id="line2d_20">
      <g>
       <use xlink:href="#m6454ffbc91" x="38.346953" y="209.794316" style="stroke: #000000; stroke-width: 0.8"/>
      </g>
     </g>
     <g id="text_11">
      <!-- 2 -->
      <g transform="translate(25.786016 213.434453) scale(0.1 -0.1)">
       <use xlink:href="#ArialUnicodeMS-15"/>
      </g>
     </g>
    </g>
    <g id="ytick_5">
     <g id="line2d_21">
      <path d="M 38.346953 151.20694 
L 331.283835 151.20694 
" clip-path="url(#p72d5628afd)" style="fill: none; stroke-dasharray: 2.96,1.28; stroke-dashoffset: 0; stroke: #b0b0b0; stroke-opacity: 0.3; stroke-width: 0.8"/>
     </g>
     <g id="line2d_22">
      <g>
       <use xlink:href="#m6454ffbc91" x="38.346953" y="151.20694" style="stroke: #000000; stroke-width: 0.8"/>
      </g>
     </g>
     <g id="text_12">
      <!-- 3 -->
      <g transform="translate(25.786016 154.847077) scale(0.1 -0.1)">
       <use xlink:href="#ArialUnicodeMS-16"/>
      </g>
     </g>
    </g>
    <g id="ytick_6">
     <g id="line2d_23">
      <path d="M 38.346953 92.619564 
L 331.283835 92.619564 
" clip-path="url(#p72d5628afd)" style="fill: none; stroke-dasharray: 2.96,1.28; stroke-dashoffset: 0; stroke: #b0b0b0; stroke-opacity: 0.3; stroke-width: 0.8"/>
     </g>
     <g id="line2d_24">
      <g>
       <use xlink:href="#m6454ffbc91" x="38.346953" y="92.619564" style="stroke: #000000; stroke-width: 0.8"/>
      </g>
     </g>
     <g id="text_13">
      <!-- 4 -->
      <g transform="translate(25.786016 96.259701) scale(0.1 -0.1)">
       <use xlink:href="#ArialUnicodeMS-17"/>
      </g>
     </g>
    </g>
    <g id="ytick_7">
     <g id="line2d_25">
      <path d="M 38.346953 34.032187 
L 331.283835 34.032187 
" clip-path="url(#p72d5628afd)" style="fill: none; stroke-dasharray: 2.96,1.28; stroke-dashoffset: 0; stroke: #b0b0b0; stroke-opacity: 0.3; stroke-width: 0.8"/>
     </g>
     <g id="line2d_26">
      <g>
       <use xlink:href="#m6454ffbc91" x="38.346953" y="34.032187" style="stroke: #000000; stroke-width: 0.8"/>
      </g>
     </g>
     <g id="text_14">
      <!-- 5 -->
      <g transform="translate(25.786016 37.672324) scale(0.1 -0.1)">
       <defs>
        <path id="ArialUnicodeMS-18" d="M 1013 2753 
Q 1431 3041 1881 3041 
Q 2453 3041 2878 2636 
Q 3303 2231 3303 1556 
Q 3303 875 2872 398 
Q 2441 -78 1741 -78 
Q 1169 -78 750 245 
Q 331 569 269 1203 
L 856 1247 
Q 928 813 1162 598 
Q 1397 384 1741 384 
Q 2169 384 2434 707 
Q 2700 1031 2700 1503 
Q 2700 1984 2428 2262 
Q 2156 2541 1728 2541 
Q 1188 2541 897 2100 
L 366 2163 
L 813 4519 
L 3084 4519 
L 3084 3975 
L 1259 3975 
L 1013 2753 
z
" transform="scale(0.015625)"/>
       </defs>
       <use xlink:href="#ArialUnicodeMS-18"/>
      </g>
     </g>
    </g>
    <g id="text_15">
     <!-- y -->
     <g transform="translate(15.936328 212.794316) rotate(-90) scale(0.12 -0.12)">
      <defs>
       <path id="ArialUnicodeMS-5c" d="M 3150 3316 
L 1881 -56 
Q 1878 -63 1875 -78 
Q 1694 -641 1451 -992 
Q 1209 -1344 763 -1344 
Q 613 -1344 397 -1281 
L 341 -750 
Q 503 -800 659 -800 
Q 972 -800 1092 -628 
Q 1213 -456 1363 -6 
L 103 3316 
L 709 3316 
L 1491 1144 
Q 1559 944 1638 628 
L 1650 628 
Q 1728 991 1850 1319 
L 2578 3316 
L 3150 3316 
z
" transform="scale(0.015625)"/>
      </defs>
      <use xlink:href="#ArialUnicodeMS-5c"/>
     </g>
    </g>
   </g>
   <g id="line2d_27">
    <path d="M 47.72277 425.392187 
L 50.182787 420.472154 
L 53.141745 414.554238 
L 56.100704 408.636321 
L 59.059662 402.718404 
L 62.01862 396.800487 
L 64.977579 390.88257 
L 67.936537 384.964654 
L 70.895496 379.046737 
L 73.854454 373.12882 
L 76.813412 367.210903 
L 79.772371 361.292986 
L 82.731329 355.37507 
L 85.690288 349.457153 
L 88.649246 343.539236 
L 91.608204 337.621319 
L 94.567163 331.703402 
L 97.526121 325.785486 
L 100.48508 319.867569 
L 103.444038 313.949652 
L 106.402996 308.031735 
L 109.361955 302.113818 
L 112.320913 296.195902 
L 115.279872 290.277985 
L 118.23883 284.360068 
L 121.197788 278.442151 
L 124.156747 272.524234 
L 127.115705 266.606318 
L 130.074663 260.688401 
L 133.033622 254.770484 
L 135.99258 248.852567 
L 138.951539 242.93465 
L 141.910497 237.016734 
L 144.869455 231.098817 
L 147.828414 225.1809 
L 150.787372 219.262983 
L 153.746331 213.345066 
L 156.705289 207.42715 
L 159.664247 201.509233 
L 162.623206 195.591316 
L 165.582164 189.673399 
L 168.541123 183.755482 
L 171.500081 177.837566 
L 174.459039 171.919649 
L 177.417998 166.001732 
L 180.376956 160.083815 
L 183.335915 154.165899 
L 186.294873 148.247982 
L 189.253831 142.330065 
L 192.21279 136.412148 
L 195.171748 130.494231 
L 198.130707 124.576315 
L 201.089665 118.658398 
L 204.048623 112.740481 
L 207.007582 106.822564 
L 209.96654 100.904647 
L 212.925499 94.986731 
L 215.884457 89.068814 
L 218.843415 83.150897 
L 221.802374 77.23298 
L 224.761332 71.315063 
L 227.720291 65.397147 
L 230.679249 59.47923 
L 233.638207 53.561313 
L 236.597166 47.643396 
L 239.556124 41.725479 
L 242.515083 35.807563 
L 245.474041 29.889646 
L 248.432999 23.971729 
L 251.391958 18.053812 
L 254.350916 12.135895 
L 257.309875 6.217979 
L 260.268833 0.300062 
L 260.918864 -1 
" clip-path="url(#p72d5628afd)" style="fill: none; stroke: #0000ff; stroke-width: 2; stroke-linecap: square"/>
   </g>
   <g id="line2d_28">
    <path d="M 38.346953 268.381693 
L 41.305912 266.902214 
L 44.26487 265.422734 
L 47.223828 263.943255 
L 50.182787 262.463776 
L 53.141745 260.984297 
L 56.100704 259.504818 
L 59.059662 258.025338 
L 62.01862 256.545859 
L 64.977579 255.06638 
L 67.936537 253.586901 
L 70.895496 252.107422 
L 73.854454 250.627942 
L 76.813412 249.148463 
L 79.772371 247.668984 
L 82.731329 246.189505 
L 85.690288 244.710026 
L 88.649246 243.230546 
L 91.608204 241.751067 
L 94.567163 240.271588 
L 97.526121 238.792109 
L 100.48508 237.31263 
L 103.444038 235.83315 
L 106.402996 234.353671 
L 109.361955 232.874192 
L 112.320913 231.394713 
L 115.279872 229.915234 
L 118.23883 228.435754 
L 121.197788 226.956275 
L 124.156747 225.476796 
L 127.115705 223.997317 
L 130.074663 222.517838 
L 133.033622 221.038358 
L 135.99258 219.558879 
L 138.951539 218.0794 
L 141.910497 216.599921 
L 144.869455 215.120442 
L 147.828414 213.640962 
L 150.787372 212.161483 
L 153.746331 210.682004 
L 156.705289 209.202525 
L 159.664247 207.723046 
L 162.623206 206.243566 
L 165.582164 204.764087 
L 168.541123 203.284608 
L 171.500081 201.805129 
L 174.459039 200.32565 
L 177.417998 198.84617 
L 180.376956 197.366691 
L 183.335915 195.887212 
L 186.294873 194.407733 
L 189.253831 192.928254 
L 192.21279 191.448774 
L 195.171748 189.969295 
L 198.130707 188.489816 
L 201.089665 187.010337 
L 204.048623 185.530858 
L 207.007582 184.051378 
L 209.96654 182.571899 
L 212.925499 181.09242 
L 215.884457 179.612941 
L 218.843415 178.133462 
L 221.802374 176.653982 
L 224.761332 175.174503 
L 227.720291 173.695024 
L 230.679249 172.215545 
L 233.638207 170.736066 
L 236.597166 169.256586 
L 239.556124 167.777107 
L 242.515083 166.297628 
L 245.474041 164.818149 
L 248.432999 163.33867 
L 251.391958 161.85919 
L 254.350916 160.379711 
L 257.309875 158.900232 
L 260.268833 157.420753 
L 263.227791 155.941274 
L 266.18675 154.461794 
L 269.145708 152.982315 
L 272.104667 151.502836 
L 275.063625 150.023357 
L 278.022583 148.543878 
L 280.981542 147.064398 
L 283.9405 145.584919 
L 286.899459 144.10544 
L 289.858417 142.625961 
L 292.817375 141.146482 
L 295.776334 139.667002 
L 298.735292 138.187523 
L 301.694251 136.708044 
L 304.653209 135.228565 
L 307.612167 133.749086 
L 310.571126 132.269606 
L 313.530084 130.790127 
L 316.489043 129.310648 
L 319.448001 127.831169 
L 322.406959 126.35169 
L 325.365918 124.87221 
L 328.324876 123.392731 
L 331.283835 121.913252 
" clip-path="url(#p72d5628afd)" style="fill: none; stroke: #008000; stroke-width: 2; stroke-linecap: square"/>
   </g>
   <g id="line2d_29">
    <path d="M 38.346953 326.969069 
L 331.283835 326.969069 
" clip-path="url(#p72d5628afd)" style="fill: none; stroke: #000000; stroke-width: 0.8; stroke-linecap: square"/>
   </g>
   <g id="line2d_30">
    <path d="M 96.934329 385.556445 
L 96.934329 34.032187 
" clip-path="url(#p72d5628afd)" style="fill: none; stroke: #000000; stroke-width: 0.8; stroke-linecap: square"/>
   </g>
   <g id="patch_3">
    <path d="M 38.346953 385.556445 
L 38.346953 34.032187 
" style="fill: none; stroke: #000000; stroke-width: 0.8; stroke-linejoin: miter; stroke-linecap: square"/>
   </g>
   <g id="patch_4">
    <path d="M 331.283835 385.556445 
L 331.283835 34.032187 
" style="fill: none; stroke: #000000; stroke-width: 0.8; stroke-linejoin: miter; stroke-linecap: square"/>
   </g>
   <g id="patch_5">
    <path d="M 38.346953 385.556445 
L 331.283835 385.556445 
" style="fill: none; stroke: #000000; stroke-width: 0.8; stroke-linejoin: miter; stroke-linecap: square"/>
   </g>
   <g id="patch_6">
    <path d="M 38.346953 34.032187 
L 331.283835 34.032187 
" style="fill: none; stroke: #000000; stroke-width: 0.8; stroke-linejoin: miter; stroke-linecap: square"/>
   </g>
   <g id="patch_7">
    <path d="M 184.194319 226.810867 
Q 170.717281 218.812548 158.682435 211.670138 
" style="fill: none; stroke: #ff0000; stroke-width: 1.5; stroke-linecap: round"/>
    <path d="M 161.343445 215.807653 
L 158.682435 211.670138 
L 163.589053 212.02384 
" style="fill: none; stroke: #ff0000; stroke-width: 1.5; stroke-linecap: round"/>
   </g>
   <g id="text_16">
    <g id="patch_8">
     <path d="M 184.815394 265.198885 
L 250.815394 265.198885 
Q 256.315394 265.198885 256.315394 259.698885 
L 256.315394 233.829549 
Q 256.315394 228.329549 250.815394 228.329549 
L 184.815394 228.329549 
Q 179.315394 228.329549 179.315394 233.829549 
L 179.315394 259.698885 
Q 179.315394 265.198885 184.815394 265.198885 
z
" style="fill: #ffffe0; opacity: 0.8; stroke: #000000; stroke-linejoin: miter"/>
    </g>
    <!-- 交点 (1, 2) -->
    <g transform="translate(184.815394 243.686366) scale(0.11 -0.11)">
     <defs>
      <path id="ArialUnicodeMS-2133" d="M 5759 3969 
L 684 3969 
L 684 4428 
L 2956 4428 
L 2956 5259 
L 3444 5259 
L 3444 4428 
L 5759 4428 
L 5759 3969 
z
M 5722 2450 
L 5306 2131 
Q 4831 2956 3603 3525 
L 4056 3841 
Q 5247 3244 5722 2450 
z
M 2644 3553 
Q 2209 2806 978 2175 
L 634 2559 
Q 1816 3119 2291 3841 
L 2644 3553 
z
M 6053 84 
L 5728 -384 
Q 4272 -9 3250 850 
Q 2447 84 763 -416 
L 447 63 
Q 2134 438 2875 1216 
Q 2388 1741 2016 2656 
L 2456 2847 
Q 2816 2025 3225 1550 
Q 3741 2184 4006 2925 
L 4447 2694 
Q 4094 1797 3584 1209 
Q 4456 472 6053 84 
z
" transform="scale(0.015625)"/>
      <path id="ArialUnicodeMS-4348" d="M 5522 4225 
L 3213 4225 
L 3213 3597 
L 4972 3597 
L 4972 1459 
L 1338 1459 
L 1338 3597 
L 2725 3597 
L 2725 5313 
L 3213 5313 
L 3213 4666 
L 5522 4666 
L 5522 4225 
z
M 4513 1900 
L 4513 3156 
L 1825 3156 
L 1825 1900 
L 4513 1900 
z
M 6081 -56 
L 5619 -325 
Q 5188 509 4544 1031 
L 4922 1288 
Q 5672 631 6081 -56 
z
M 1856 1044 
Q 1550 141 763 -453 
L 319 -91 
Q 1059 356 1447 1247 
L 1850 1044 
L 1856 1044 
z
M 4538 -109 
L 4072 -288 
Q 3759 481 3272 997 
L 3681 1197 
Q 4216 653 4538 -109 
z
M 3200 -134 
L 2700 -275 
Q 2519 444 2047 1013 
L 2463 1184 
Q 2925 600 3200 -134 
z
" transform="scale(0.015625)"/>
      <path id="ArialUnicodeMS-3" transform="scale(0.015625)"/>
      <path id="ArialUnicodeMS-b" d="M 1900 -1344 
L 1497 -1344 
Q 978 -681 681 103 
Q 384 888 384 1656 
Q 384 2528 700 3275 
Q 1016 4022 1497 4659 
L 1900 4659 
Q 1344 3747 1155 3059 
Q 966 2372 966 1663 
Q 966 153 1900 -1344 
z
" transform="scale(0.015625)"/>
      <path id="ArialUnicodeMS-f" d="M 1216 0 
Q 1216 -397 1064 -606 
Q 913 -816 691 -903 
L 538 -666 
Q 888 -516 891 0 
L 575 0 
L 575 641 
L 1216 641 
L 1216 0 
z
" transform="scale(0.015625)"/>
      <path id="ArialUnicodeMS-c" d="M 634 4659 
Q 1153 3997 1450 3212 
Q 1747 2428 1747 1656 
Q 1747 788 1431 41 
Q 1116 -706 634 -1344 
L 231 -1344 
Q 788 -431 977 255 
Q 1166 941 1166 1650 
Q 1166 3163 231 4659 
L 634 4659 
z
" transform="scale(0.015625)"/>
     </defs>
     <use xlink:href="#ArialUnicodeMS-2133"/>
     <use xlink:href="#ArialUnicodeMS-4348" transform="translate(100 0)"/>
     <use xlink:href="#ArialUnicodeMS-3" transform="translate(200 0)"/>
     <use xlink:href="#ArialUnicodeMS-b" transform="translate(227.78125 0)"/>
     <use xlink:href="#ArialUnicodeMS-14" transform="translate(261.078125 0)"/>
     <use xlink:href="#ArialUnicodeMS-f" transform="translate(316.6875 0)"/>
     <use xlink:href="#ArialUnicodeMS-3" transform="translate(344.46875 0)"/>
     <use xlink:href="#ArialUnicodeMS-15" transform="translate(372.25 0)"/>
     <use xlink:href="#ArialUnicodeMS-c" transform="translate(427.859375 0)"/>
    </g>
    <!-- 即方程组的解 -->
    <g transform="translate(184.815394 256.664217) scale(0.11 -0.11)">
     <defs>
      <path id="ArialUnicodeMS-2602" d="M 3541 122 
Q 3259 -53 3084 -141 
Q 2928 366 2834 494 
L 616 -97 
L 353 384 
L 831 494 
L 831 5031 
L 3150 5031 
L 3150 2069 
L 1319 2069 
L 1319 603 
L 2597 922 
Q 2416 1259 2094 1613 
L 2503 1819 
Q 3178 1131 3541 122 
z
M 2663 3803 
L 2663 4563 
L 1319 4563 
L 1319 3803 
L 2663 3803 
z
M 2663 2534 
L 2663 3334 
L 1319 3334 
L 1319 2534 
L 2663 2534 
z
M 5734 1222 
Q 5734 975 5589 828 
Q 5444 681 5178 678 
L 4672 672 
L 4544 1147 
L 5044 1147 
Q 5247 1147 5247 1409 
L 5247 4519 
L 4172 4519 
L 4172 -428 
L 3688 -428 
L 3688 4984 
L 5734 4984 
L 5734 1222 
z
" transform="scale(0.015625)"/>
      <path id="ArialUnicodeMS-3848" d="M 5991 3803 
L 2772 3803 
Q 2772 3413 2731 2747 
L 5141 2747 
Q 5119 1750 4973 931 
Q 4828 113 4617 -62 
Q 4406 -238 4166 -238 
Q 3847 -238 3003 -25 
L 2906 544 
Q 3750 238 4056 238 
Q 4178 238 4267 336 
Q 4356 434 4456 970 
Q 4556 1506 4575 2278 
L 2694 2278 
Q 2472 1097 1965 481 
Q 1459 -134 666 -428 
L 331 31 
Q 1184 341 1559 805 
Q 1934 1269 2090 1803 
Q 2247 2338 2247 3803 
L 647 3803 
L 647 4269 
L 2956 4269 
L 2956 5259 
L 3444 5259 
L 3444 4269 
L 5991 4269 
L 5991 3803 
z
" transform="scale(0.015625)"/>
      <path id="ArialUnicodeMS-4c9a" d="M 2791 1844 
L 2394 1544 
Q 2159 2056 1856 2350 
L 1856 -447 
L 1369 -447 
L 1369 2034 
L 1363 2034 
Q 1100 1384 575 697 
L 184 1031 
Q 1006 1956 1319 3206 
L 403 3206 
L 403 3675 
L 1369 3675 
L 1369 4397 
Q 928 4284 588 4250 
L 366 4678 
Q 1678 4850 2463 5222 
L 2772 4878 
Q 2388 4669 1856 4506 
L 1856 3675 
L 2675 3675 
L 2675 3206 
L 1856 3206 
L 1856 2688 
L 2028 2841 
Q 2341 2547 2791 1844 
z
M 5575 3194 
L 2894 3194 
L 2894 5063 
L 5575 5063 
L 5575 3194 
z
M 5088 3659 
L 5088 4622 
L 3378 4622 
L 3378 3659 
L 5088 3659 
z
M 6075 -103 
L 2284 -103 
L 2284 341 
L 3988 341 
L 3988 1119 
L 2688 1119 
L 2688 1588 
L 3988 1588 
L 3988 2322 
L 2619 2322 
L 2619 2766 
L 5844 2766 
L 5844 2322 
L 4475 2322 
L 4475 1588 
L 5703 1588 
L 5703 1119 
L 4475 1119 
L 4475 341 
L 6075 341 
L 6075 -103 
z
" transform="scale(0.015625)"/>
      <path id="ArialUnicodeMS-5153" d="M 2509 1619 
Q 853 1231 622 1147 
L 391 1575 
Q 1022 2209 1306 2625 
L 1294 2638 
Q 1284 2631 1023 2561 
Q 763 2491 609 2438 
L 366 2881 
Q 853 3669 1441 5166 
L 1875 4966 
Q 1300 3650 947 3022 
L 1619 3163 
Q 1797 3416 2047 3922 
L 2503 3719 
Q 1863 2416 1153 1772 
L 1166 1759 
L 2509 2053 
L 2509 1619 
z
M 5919 -91 
L 2150 -91 
L 2150 378 
L 2881 378 
L 2881 4941 
L 5184 4941 
L 5184 378 
L 5919 378 
L 5919 -91 
z
M 4697 3469 
L 4697 4475 
L 3366 4475 
L 3366 3469 
L 4697 3469 
z
M 4697 1972 
L 4697 3028 
L 3366 3028 
L 3366 1972 
L 4697 1972 
z
M 4697 378 
L 4697 1528 
L 3366 1528 
L 3366 378 
L 4697 378 
z
M 2650 691 
L 647 19 
L 409 459 
Q 2306 1044 2650 1172 
L 2650 691 
z
" transform="scale(0.015625)"/>
      <path id="ArialUnicodeMS-4913" d="M 5644 4281 
Q 5619 1694 5395 673 
Q 5172 -347 4606 -347 
Q 4350 -347 3609 -134 
L 3525 403 
Q 4247 134 4531 134 
Q 4806 134 4976 1142 
Q 5147 2150 5159 3841 
L 3794 3841 
Q 3550 3166 3053 2497 
L 2719 2713 
L 2719 -147 
L 2216 -147 
L 2216 269 
L 1153 269 
L 1153 -250 
L 647 -250 
L 647 4184 
L 1234 4184 
Q 1494 4644 1625 5313 
L 2088 5125 
Q 1903 4444 1741 4184 
L 2719 4184 
L 2719 2881 
Q 3431 3888 3681 5363 
L 4191 5247 
Q 4106 4869 3916 4281 
L 5644 4281 
z
M 2216 2484 
L 2216 3719 
L 1153 3719 
L 1153 2484 
L 2216 2484 
z
M 2216 738 
L 2216 2016 
L 1153 2016 
L 1153 738 
L 2216 738 
z
M 4775 1369 
L 4313 1166 
Q 4034 1925 3444 2669 
L 3841 2931 
Q 4484 2191 4775 1369 
z
" transform="scale(0.015625)"/>
      <path id="ArialUnicodeMS-5c72" d="M 5797 5044 
Q 5784 4794 5675 4201 
Q 5566 3609 5436 3459 
Q 5306 3309 5069 3309 
Q 4869 3309 4575 3372 
L 4422 3903 
Q 4838 3756 4953 3756 
Q 5053 3756 5106 3878 
Q 5159 4000 5253 4581 
L 4538 4581 
Q 4375 3463 3413 3053 
L 3200 3334 
L 3200 225 
Q 3200 -56 3033 -187 
Q 2866 -319 2688 -319 
L 2381 -319 
L 2222 141 
L 2559 141 
Q 2713 113 2713 313 
L 2713 1081 
L 1369 1081 
Q 1234 69 697 -428 
L 331 -97 
Q 631 250 761 614 
Q 891 978 891 1234 
L 891 3238 
L 738 3041 
L 347 3359 
Q 1131 4109 1381 5338 
L 1838 5178 
Q 1747 4803 1728 4769 
L 2859 4769 
Q 2722 4203 2528 3750 
L 3200 3750 
L 3200 3456 
Q 4013 3838 4078 4581 
L 3372 4581 
L 3372 5044 
L 5797 5044 
z
M 2266 4306 
L 1556 4306 
Q 1472 4050 1294 3750 
L 2009 3750 
Q 2178 4034 2266 4306 
z
M 2713 2663 
L 2713 3291 
L 2284 3291 
L 2284 2663 
L 2713 2663 
z
M 1797 2663 
L 1797 3291 
L 1375 3291 
L 1375 2663 
L 1797 2663 
z
M 2713 1544 
L 2713 2203 
L 2284 2203 
L 2284 1544 
L 2713 1544 
z
M 1797 1544 
L 1797 2203 
L 1375 2203 
L 1375 1544 
L 1797 1544 
z
M 6075 991 
L 4997 991 
L 4997 -409 
L 4513 -409 
L 4513 991 
L 3341 991 
L 3341 1453 
L 4513 1453 
L 4513 2131 
L 4013 2131 
Q 3931 1838 3706 1538 
L 3272 1825 
Q 3728 2366 3706 3150 
L 4184 3047 
Q 4178 2788 4141 2591 
L 4513 2591 
L 4513 3231 
L 4997 3231 
L 4997 2591 
L 5741 2591 
L 5741 2131 
L 4997 2131 
L 4997 1453 
L 6075 1453 
L 6075 991 
z
" transform="scale(0.015625)"/>
     </defs>
     <use xlink:href="#ArialUnicodeMS-2602"/>
     <use xlink:href="#ArialUnicodeMS-3848" transform="translate(100 0)"/>
     <use xlink:href="#ArialUnicodeMS-4c9a" transform="translate(200 0)"/>
     <use xlink:href="#ArialUnicodeMS-5153" transform="translate(300 0)"/>
     <use xlink:href="#ArialUnicodeMS-4913" transform="translate(400 0)"/>
     <use xlink:href="#ArialUnicodeMS-5c72" transform="translate(500 0)"/>
    </g>
   </g>
   <g id="text_17">
    <!-- 行图像（Row Picture）：两条直线的交点 -->
    <g transform="translate(56.082113 19.032187) scale(0.14 -0.14)">
     <defs>
      <path id="ArialUnicodeMS-5adb" d="M 2406 5113 
Q 1606 3906 838 3359 
L 409 3694 
Q 1353 4350 2028 5409 
L 2406 5113 
z
M 5631 4441 
L 2881 4441 
L 2881 4909 
L 5631 4909 
L 5631 4441 
z
M 2688 3597 
Q 2538 3313 1906 2553 
L 1906 -397 
L 1422 -397 
L 1422 2047 
Q 772 1578 703 1538 
L 325 1931 
Q 1372 2534 2297 3859 
L 2688 3597 
z
M 6022 2888 
L 4878 2888 
L 4878 206 
Q 4878 -372 4166 -372 
Q 3781 -372 3494 -359 
L 3341 128 
Q 3969 103 4069 103 
Q 4244 103 4308 154 
Q 4372 206 4372 341 
L 4372 2888 
L 2725 2888 
L 2725 3353 
L 6022 3353 
L 6022 2888 
z
" transform="scale(0.015625)"/>
      <path id="ArialUnicodeMS-298d" d="M 5544 -422 
L 5056 -422 
L 5056 19 
L 1184 19 
L 1184 -422 
L 703 -422 
L 703 5019 
L 5544 5019 
L 5544 -422 
z
M 5056 2400 
L 5056 4550 
L 2625 4550 
L 2625 4538 
L 2906 4416 
Q 2863 4322 2778 4178 
L 4513 4178 
L 4513 3781 
Q 4203 3203 3675 2778 
Q 4228 2456 5056 2400 
z
M 5056 459 
L 5056 2163 
L 5044 2163 
L 4831 1850 
Q 4013 1963 3188 2463 
Q 2713 2188 1516 1900 
L 1281 2388 
Q 2341 2584 2784 2834 
Q 2544 3022 2259 3413 
Q 1941 3031 1575 2869 
L 1253 3297 
Q 2072 3656 2419 4550 
L 1191 4550 
L 1191 459 
L 3231 459 
Q 2769 950 2125 1228 
L 2400 1606 
Q 3019 1372 3694 716 
L 3488 459 
L 5056 459 
z
M 3994 1491 
L 3628 1131 
Q 3197 1638 2613 1906 
L 2963 2241 
Q 3434 2072 3994 1491 
z
M 3903 3713 
L 2584 3713 
Q 2709 3513 3250 3053 
Q 3647 3328 3903 3713 
z
" transform="scale(0.015625)"/>
      <path id="ArialUnicodeMS-235e" d="M 6163 372 
L 5791 13 
Q 4575 938 4409 2675 
L 4084 2675 
L 3944 2528 
Q 4222 2284 4383 1754 
Q 4544 1225 4544 813 
Q 4544 94 4319 -145 
Q 4094 -384 3822 -384 
Q 3528 -384 3225 -313 
L 3084 213 
Q 3538 66 3750 66 
Q 4075 66 4075 756 
Q 4075 875 4063 959 
Q 3247 325 1953 63 
L 1619 481 
Q 2966 628 3981 1453 
Q 3975 1472 3961 1540 
Q 3947 1609 3916 1672 
Q 3066 1106 2075 897 
L 1772 1294 
Q 2869 1491 3725 2059 
Q 3709 2147 3597 2253 
Q 2863 1866 2144 1728 
L 1844 2144 
Q 2891 2294 3475 2675 
L 2228 2675 
L 2228 3525 
L 2047 3406 
L 1663 3706 
Q 2638 4500 3003 5375 
L 3431 5203 
Q 3375 5047 3309 4947 
L 5063 4947 
L 5063 4538 
Q 4991 4359 4850 4134 
L 5644 4134 
L 5644 2675 
L 4872 2675 
Q 4919 2275 4984 2047 
Q 5338 2253 5600 2541 
L 5931 2209 
Q 5569 1859 5119 1619 
Q 5334 984 6163 372 
z
M 4500 4494 
L 3078 4494 
L 2797 4134 
L 4294 4134 
L 4500 4494 
z
M 5159 3144 
L 5159 3669 
L 4166 3669 
L 4166 3144 
L 5159 3144 
z
M 3694 3144 
L 3694 3669 
L 2713 3669 
L 2713 3144 
L 3694 3144 
z
M 2181 5153 
Q 1975 4334 1600 3706 
L 1600 -397 
L 1113 -397 
L 1113 2944 
Q 875 2588 609 2338 
L 256 2694 
Q 1278 3697 1747 5338 
L 2181 5153 
z
" transform="scale(0.015625)"/>
      <path id="ArialUnicodeMS-19e4" d="M 3963 -1344 
L 3560 -1344 
Q 3041 -681 2744 103 
Q 2447 888 2447 1656 
Q 2447 2528 2763 3275 
Q 3079 4022 3560 4659 
L 3963 4659 
Q 3407 3747 3218 3059 
Q 3029 2372 3029 1663 
Q 3029 153 3963 -1344 
z
" transform="scale(0.015625)"/>
      <path id="ArialUnicodeMS-35" d="M 4550 0 
L 3788 0 
Q 3103 1081 2937 1328 
Q 2772 1575 2589 1751 
Q 2406 1928 2245 1975 
Q 2084 2022 1819 2022 
L 1119 2022 
L 1119 0 
L 513 0 
L 513 4581 
L 2541 4581 
Q 2956 4581 3237 4528 
Q 3519 4475 3731 4304 
Q 3944 4134 4058 3875 
Q 4172 3616 4172 3328 
Q 4172 2809 3844 2493 
Q 3516 2178 2888 2094 
L 2888 2081 
Q 3347 1878 3750 1247 
L 4550 0 
z
M 1119 2566 
L 2419 2566 
Q 2813 2566 3042 2633 
Q 3272 2700 3409 2894 
Q 3547 3088 3547 3328 
Q 3547 3641 3319 3859 
Q 3091 4078 2566 4078 
L 1119 4078 
L 1119 2566 
z
" transform="scale(0.015625)"/>
      <path id="ArialUnicodeMS-52" d="M 1778 3391 
Q 2450 3391 2892 2953 
Q 3334 2516 3334 1709 
Q 3334 731 2856 326 
Q 2378 -78 1778 -78 
Q 1150 -78 687 337 
Q 225 753 225 1656 
Q 225 2531 672 2961 
Q 1119 3391 1778 3391 
z
M 1778 384 
Q 2259 384 2509 740 
Q 2759 1097 2759 1678 
Q 2759 2300 2476 2615 
Q 2194 2931 1778 2931 
Q 1350 2931 1075 2611 
Q 800 2291 800 1656 
Q 800 1025 1079 704 
Q 1359 384 1778 384 
z
" transform="scale(0.015625)"/>
      <path id="ArialUnicodeMS-5a" d="M 4588 3316 
L 3547 0 
L 2963 0 
L 2438 1991 
Q 2434 1991 2371 2259 
Q 2309 2528 2309 2553 
L 2297 2553 
L 1638 0 
L 1050 0 
L 31 3316 
L 616 3316 
L 1338 691 
L 1450 1138 
L 2041 3316 
L 2619 3316 
L 3066 1578 
Q 3253 859 3272 763 
L 3284 763 
L 4038 3316 
L 4588 3316 
z
" transform="scale(0.015625)"/>
      <path id="ArialUnicodeMS-33" d="M 494 4581 
L 2222 4581 
Q 2631 4581 2926 4540 
Q 3222 4500 3475 4329 
Q 3728 4159 3858 3867 
Q 3988 3575 3988 3256 
Q 3988 2622 3580 2239 
Q 3172 1856 2272 1856 
L 1100 1856 
L 1100 0 
L 494 0 
L 494 4581 
z
M 1100 2400 
L 2278 2400 
Q 3359 2400 3359 3238 
Q 3359 3513 3218 3723 
Q 3078 3934 2873 3986 
Q 2669 4038 2266 4038 
L 1100 4038 
L 1100 2400 
z
" transform="scale(0.015625)"/>
      <path id="ArialUnicodeMS-4c" d="M 991 0 
L 428 0 
L 428 3316 
L 991 3316 
L 991 0 
z
M 991 3944 
L 428 3944 
L 428 4581 
L 991 4581 
L 991 3944 
z
" transform="scale(0.015625)"/>
      <path id="ArialUnicodeMS-46" d="M 3144 1147 
Q 3034 513 2643 217 
Q 2253 -78 1759 -78 
Q 1038 -78 644 395 
Q 250 869 250 1650 
Q 250 2297 476 2686 
Q 703 3075 1043 3233 
Q 1384 3391 1759 3391 
Q 2272 3391 2636 3125 
Q 3000 2859 3084 2344 
L 2541 2259 
Q 2456 2594 2267 2762 
Q 2078 2931 1784 2931 
Q 1313 2931 1069 2597 
Q 825 2263 825 1663 
Q 825 1050 1064 717 
Q 1303 384 1753 384 
Q 2116 384 2323 592 
Q 2531 800 2584 1216 
L 3144 1147 
z
" transform="scale(0.015625)"/>
      <path id="ArialUnicodeMS-57" d="M 1722 6 
Q 1472 -44 1300 -44 
Q 931 -44 762 86 
Q 594 216 556 416 
Q 519 616 519 972 
L 519 2881 
L 109 2881 
L 109 3316 
L 519 3316 
L 519 4141 
L 1081 4481 
L 1081 3316 
L 1644 3316 
L 1644 2881 
L 1081 2881 
L 1081 941 
Q 1081 691 1132 586 
Q 1184 481 1394 481 
Q 1516 481 1644 506 
L 1722 6 
z
" transform="scale(0.015625)"/>
      <path id="ArialUnicodeMS-58" d="M 3116 0 
L 2613 0 
L 2613 488 
L 2597 488 
Q 2216 -78 1556 -78 
Q 1209 -78 914 83 
Q 619 244 520 526 
Q 422 809 422 1259 
L 422 3316 
L 984 3316 
L 984 1478 
Q 984 1038 1026 847 
Q 1069 656 1247 532 
Q 1425 409 1672 409 
Q 1991 409 2272 629 
Q 2553 850 2553 1544 
L 2553 3316 
L 3116 3316 
L 3116 0 
z
" transform="scale(0.015625)"/>
      <path id="ArialUnicodeMS-55" d="M 2216 3213 
L 2022 2694 
Q 1813 2816 1613 2816 
Q 1297 2816 1134 2533 
Q 972 2250 972 1741 
L 972 0 
L 409 0 
L 409 3316 
L 922 3316 
L 922 2816 
L 934 2816 
Q 1203 3391 1638 3391 
Q 1925 3391 2216 3213 
z
" transform="scale(0.015625)"/>
      <path id="ArialUnicodeMS-48" d="M 3309 1516 
L 825 1516 
Q 859 966 1139 675 
Q 1419 384 1838 384 
Q 2159 384 2378 554 
Q 2597 725 2713 1069 
L 3291 997 
Q 3150 478 2775 200 
Q 2400 -78 1838 -78 
Q 1091 -78 670 380 
Q 250 838 250 1631 
Q 250 2416 658 2903 
Q 1066 3391 1806 3391 
Q 2169 3391 2505 3231 
Q 2841 3072 3075 2689 
Q 3309 2306 3309 1516 
z
M 2731 1978 
Q 2697 2484 2417 2707 
Q 2138 2931 1806 2931 
Q 1409 2931 1153 2665 
Q 897 2400 856 1978 
L 2731 1978 
z
" transform="scale(0.015625)"/>
      <path id="ArialUnicodeMS-19e5" d="M 2847 4659 
Q 3366 3997 3663 3212 
Q 3960 2428 3960 1656 
Q 3960 788 3644 41 
Q 3329 -706 2847 -1344 
L 2444 -1344 
Q 3001 -431 3190 255 
Q 3379 941 3379 1650 
Q 3379 3163 2444 4659 
L 2847 4659 
z
" transform="scale(0.015625)"/>
      <path id="ArialUnicodeMS-19f6" d="M 3516 2675 
L 2875 2675 
L 2875 3316 
L 3516 3316 
L 3516 2675 
z
M 3516 0 
L 2875 0 
L 2875 641 
L 3516 641 
L 3516 0 
z
" transform="scale(0.015625)"/>
      <path id="ArialUnicodeMS-20b3" d="M 5831 4525 
L 4091 4525 
L 4091 3706 
L 5472 3706 
L 5472 122 
Q 5472 -88 5315 -213 
Q 5159 -338 4866 -338 
Q 4722 -338 4459 -306 
L 4294 159 
Q 4644 106 4844 106 
Q 5013 106 5013 238 
L 5013 3263 
L 4063 3263 
L 4019 2747 
Q 4647 2319 4953 1797 
L 4569 1447 
Q 4322 1950 3944 2272 
Q 3663 1159 2975 494 
L 2572 813 
Q 3581 1788 3616 3263 
L 2713 3263 
L 2650 2766 
Q 3050 2519 3347 2119 
L 3009 1772 
Q 2784 2128 2572 2266 
Q 2313 1238 1663 666 
L 1300 984 
Q 2144 1728 2209 3263 
L 1247 3263 
L 1247 -391 
L 763 -391 
L 763 3706 
L 2216 3706 
L 2216 4525 
L 397 4525 
L 397 4991 
L 5831 4991 
L 5831 4525 
z
M 3628 3706 
L 3628 4525 
L 2700 4525 
L 2700 3706 
L 3628 3706 
z
" transform="scale(0.015625)"/>
      <path id="ArialUnicodeMS-39f0" d="M 6119 2375 
L 5753 1966 
Q 3991 2516 3238 2994 
Q 2597 2544 569 2009 
L 256 2431 
Q 2072 2881 2791 3303 
Q 2100 3819 1966 4044 
Q 1500 3513 872 3219 
L 513 3622 
Q 1613 4031 2247 5294 
L 2656 5113 
Q 2606 4975 2528 4850 
L 4806 4850 
L 4806 4453 
Q 4497 3881 3647 3284 
Q 4338 2891 6119 2375 
z
M 4225 4384 
L 2241 4384 
Q 2566 3959 3213 3559 
Q 3925 3988 4225 4384 
z
M 6106 416 
L 5819 -13 
Q 4303 419 3506 1466 
L 3506 -403 
Q 3438 -416 3294 -416 
Q 3134 -416 3022 -403 
L 3022 1441 
Q 2209 400 722 -25 
L 434 403 
Q 1725 706 2547 1563 
L 1100 1563 
L 1100 2028 
L 3022 2028 
L 3022 2534 
L 3506 2534 
L 3506 2028 
L 5344 2028 
L 5344 1563 
L 4006 1563 
Q 4813 722 6106 416 
z
" transform="scale(0.015625)"/>
      <path id="ArialUnicodeMS-4983" d="M 5919 4359 
L 3763 4359 
L 3738 3909 
L 5203 3909 
L 5203 728 
L 1941 728 
L 1941 3909 
L 3219 3909 
L 3256 4359 
L 609 4359 
L 609 4825 
L 3297 4825 
L 3322 5344 
L 3834 5300 
L 3803 4825 
L 5919 4825 
L 5919 4359 
z
M 4716 2975 
L 4716 3444 
L 2425 3444 
L 2425 2975 
L 4716 2975 
z
M 4716 2100 
L 4716 2553 
L 2425 2553 
L 2425 2100 
L 4716 2100 
z
M 4716 1197 
L 4716 1656 
L 2425 1656 
L 2425 1197 
L 4716 1197 
z
M 6075 -166 
L 1191 -166 
L 1191 -447 
L 678 -447 
L 678 3541 
L 1191 3541 
L 1191 300 
L 6075 300 
L 6075 -166 
z
" transform="scale(0.015625)"/>
      <path id="ArialUnicodeMS-514e" d="M 2503 3981 
Q 1903 2625 1141 1947 
L 1153 1931 
L 2444 2144 
L 2456 1709 
Q 1428 1534 575 1313 
L 341 1772 
Q 934 2234 1344 2919 
L 563 2725 
L 347 3206 
Q 1059 4156 1325 5319 
Q 1403 5288 1551 5209 
Q 1700 5131 1791 5100 
Q 1441 3947 959 3316 
Q 1597 3375 1650 3397 
Q 1944 3938 2059 4225 
L 2503 3981 
z
M 5997 481 
Q 5925 44 5808 -170 
Q 5691 -384 5497 -384 
Q 5319 -384 4869 -115 
Q 4419 153 4031 666 
Q 3594 188 2388 -341 
L 2088 72 
Q 3097 466 3763 1088 
Q 3503 1550 3406 2419 
L 2484 2272 
L 2406 2725 
L 3378 2900 
L 3378 3397 
L 2606 3278 
L 2522 3731 
L 3378 3891 
L 3378 5209 
Q 3763 5288 3866 5294 
L 3866 3975 
L 5409 4231 
L 5497 3781 
Q 4550 3622 3866 3481 
L 3866 2994 
L 5772 3341 
Q 5825 3150 5856 2875 
L 3884 2516 
Q 3988 1794 4147 1466 
Q 4731 1991 5075 2484 
L 5453 2222 
Q 4731 1353 4372 1025 
Q 4753 456 5403 153 
Q 5494 378 5509 750 
L 5997 481 
z
M 5166 4544 
L 4831 4225 
Q 4478 4656 4019 4856 
L 4306 5178 
Q 4784 4956 5166 4544 
z
M 2578 872 
L 531 134 
Q 500 197 412 347 
Q 325 497 281 603 
L 2578 1369 
L 2578 872 
z
" transform="scale(0.015625)"/>
     </defs>
     <use xlink:href="#ArialUnicodeMS-5adb"/>
     <use xlink:href="#ArialUnicodeMS-298d" transform="translate(100 0)"/>
     <use xlink:href="#ArialUnicodeMS-235e" transform="translate(200 0)"/>
     <use xlink:href="#ArialUnicodeMS-19e4" transform="translate(300 0)"/>
     <use xlink:href="#ArialUnicodeMS-35" transform="translate(400 0)"/>
     <use xlink:href="#ArialUnicodeMS-52" transform="translate(472.21875 0)"/>
     <use xlink:href="#ArialUnicodeMS-5a" transform="translate(527.828125 0)"/>
     <use xlink:href="#ArialUnicodeMS-3" transform="translate(600.046875 0)"/>
     <use xlink:href="#ArialUnicodeMS-33" transform="translate(627.828125 0)"/>
     <use xlink:href="#ArialUnicodeMS-4c" transform="translate(694.53125 0)"/>
     <use xlink:href="#ArialUnicodeMS-46" transform="translate(716.75 0)"/>
     <use xlink:href="#ArialUnicodeMS-57" transform="translate(766.75 0)"/>
     <use xlink:href="#ArialUnicodeMS-58" transform="translate(794.53125 0)"/>
     <use xlink:href="#ArialUnicodeMS-55" transform="translate(850.140625 0)"/>
     <use xlink:href="#ArialUnicodeMS-48" transform="translate(883.4375 0)"/>
     <use xlink:href="#ArialUnicodeMS-19e5" transform="translate(939.046875 0)"/>
     <use xlink:href="#ArialUnicodeMS-19f6" transform="translate(1039.046875 0)"/>
     <use xlink:href="#ArialUnicodeMS-20b3" transform="translate(1139.046875 0)"/>
     <use xlink:href="#ArialUnicodeMS-39f0" transform="translate(1239.046875 0)"/>
     <use xlink:href="#ArialUnicodeMS-4983" transform="translate(1339.046875 0)"/>
     <use xlink:href="#ArialUnicodeMS-514e" transform="translate(1439.046875 0)"/>
     <use xlink:href="#ArialUnicodeMS-4913" transform="translate(1539.046875 0)"/>
     <use xlink:href="#ArialUnicodeMS-2133" transform="translate(1639.046875 0)"/>
     <use xlink:href="#ArialUnicodeMS-4348" transform="translate(1739.046875 0)"/>
    </g>
   </g>
   <g id="line2d_31">
    <defs>
     <path id="mb267155cec" d="M 0 5 
C 1.326016 5 2.597899 4.473168 3.535534 3.535534 
C 4.473168 2.597899 5 1.326016 5 0 
C 5 -1.326016 4.473168 -2.597899 3.535534 -3.535534 
C 2.597899 -4.473168 1.326016 -5 0 -5 
C -1.326016 -5 -2.597899 -4.473168 -3.535534 -3.535534 
C -4.473168 -2.597899 -5 -1.326016 -5 0 
C -5 1.326016 -4.473168 2.597899 -3.535534 3.535534 
C -2.597899 4.473168 -1.326016 5 0 5 
z
" style="stroke: #ff0000"/>
    </defs>
    <g clip-path="url(#p72d5628afd)">
     <use xlink:href="#mb267155cec" x="155.521706" y="209.794316" style="fill: #ff0000; stroke: #ff0000"/>
    </g>
   </g>
   <g id="legend_1">
    <g id="patch_9">
     <path d="M 45.346953 74.532187 
L 204.346953 74.532187 
Q 206.346953 74.532187 206.346953 72.532187 
L 206.346953 41.032187 
Q 206.346953 39.032187 204.346953 39.032187 
L 45.346953 39.032187 
Q 43.346953 39.032187 43.346953 41.032187 
L 43.346953 72.532187 
Q 43.346953 74.532187 45.346953 74.532187 
z
" style="fill: #ffffff; opacity: 0.8; stroke: #cccccc; stroke-linejoin: miter"/>
    </g>
    <g id="line2d_32">
     <path d="M 47.346953 47.432187 
L 57.346953 47.432187 
L 67.346953 47.432187 
" style="fill: none; stroke: #0000ff; stroke-width: 2; stroke-linecap: square"/>
    </g>
    <g id="text_18">
     <!-- $2x - y = 0$（即 $y = 2x$） -->
     <g transform="translate(75.346953 50.932187) scale(0.1 -0.1)">
      <defs>
       <path id="DejaVuSans-15" d="M 1228 531 
L 3431 531 
L 3431 0 
L 469 0 
L 469 531 
Q 828 903 1448 1529 
Q 2069 2156 2228 2338 
Q 2531 2678 2651 2914 
Q 2772 3150 2772 3378 
Q 2772 3750 2511 3984 
Q 2250 4219 1831 4219 
Q 1534 4219 1204 4116 
Q 875 4013 500 3803 
L 500 4441 
Q 881 4594 1212 4672 
Q 1544 4750 1819 4750 
Q 2544 4750 2975 4387 
Q 3406 4025 3406 3419 
Q 3406 3131 3298 2873 
Q 3191 2616 2906 2266 
Q 2828 2175 2409 1742 
Q 1991 1309 1228 531 
z
" transform="scale(0.015625)"/>
       <path id="DejaVuSans-Oblique-5b" d="M 3841 3500 
L 2234 1784 
L 3219 0 
L 2559 0 
L 1819 1388 
L 531 0 
L -166 0 
L 1556 1844 
L 641 3500 
L 1300 3500 
L 1972 2234 
L 3144 3500 
L 3841 3500 
z
" transform="scale(0.015625)"/>
       <path id="DejaVuSans-c9c" d="M 678 2272 
L 4684 2272 
L 4684 1741 
L 678 1741 
L 678 2272 
z
" transform="scale(0.015625)"/>
       <path id="DejaVuSans-Oblique-5c" d="M 1588 -325 
Q 1188 -997 936 -1164 
Q 684 -1331 294 -1331 
L -159 -1331 
L -63 -850 
L 269 -850 
Q 509 -850 678 -719 
Q 847 -588 1056 -206 
L 1234 128 
L 459 3500 
L 1069 3500 
L 1650 819 
L 3256 3500 
L 3859 3500 
L 1588 -325 
z
" transform="scale(0.015625)"/>
       <path id="DejaVuSans-20" d="M 678 2906 
L 4684 2906 
L 4684 2381 
L 678 2381 
L 678 2906 
z
M 678 1631 
L 4684 1631 
L 4684 1100 
L 678 1100 
L 678 1631 
z
" transform="scale(0.015625)"/>
       <path id="DejaVuSans-13" d="M 2034 4250 
Q 1547 4250 1301 3770 
Q 1056 3291 1056 2328 
Q 1056 1369 1301 889 
Q 1547 409 2034 409 
Q 2525 409 2770 889 
Q 3016 1369 3016 2328 
Q 3016 3291 2770 3770 
Q 2525 4250 2034 4250 
z
M 2034 4750 
Q 2819 4750 3233 4129 
Q 3647 3509 3647 2328 
Q 3647 1150 3233 529 
Q 2819 -91 2034 -91 
Q 1250 -91 836 529 
Q 422 1150 422 2328 
Q 422 3509 836 4129 
Q 1250 4750 2034 4750 
z
" transform="scale(0.015625)"/>
      </defs>
      <use xlink:href="#DejaVuSans-15" transform="translate(0 0.390625)"/>
      <use xlink:href="#DejaVuSans-Oblique-5b" transform="translate(63.623047 0.390625)"/>
      <use xlink:href="#DejaVuSans-c9c" transform="translate(142.285156 0.390625)"/>
      <use xlink:href="#DejaVuSans-Oblique-5c" transform="translate(245.556641 0.390625)"/>
      <use xlink:href="#DejaVuSans-20" transform="translate(324.21875 0.390625)"/>
      <use xlink:href="#DejaVuSans-13" transform="translate(427.490234 0.390625)"/>
      <use xlink:href="#ArialUnicodeMS-19e4" transform="translate(491.113281 0.390625)"/>
      <use xlink:href="#ArialUnicodeMS-2602" transform="translate(591.113281 0.390625)"/>
      <use xlink:href="#ArialUnicodeMS-3" transform="translate(691.113281 0.390625)"/>
      <use xlink:href="#DejaVuSans-Oblique-5c" transform="translate(718.896484 0.390625)"/>
      <use xlink:href="#DejaVuSans-20" transform="translate(797.558594 0.390625)"/>
      <use xlink:href="#DejaVuSans-15" transform="translate(900.830078 0.390625)"/>
      <use xlink:href="#DejaVuSans-Oblique-5b" transform="translate(964.453125 0.390625)"/>
      <use xlink:href="#ArialUnicodeMS-19e5" transform="translate(1023.632812 0.390625)"/>
     </g>
    </g>
    <g id="line2d_33">
     <path d="M 47.346953 63.332187 
L 57.346953 63.332187 
L 67.346953 63.332187 
" style="fill: none; stroke: #008000; stroke-width: 2; stroke-linecap: square"/>
    </g>
    <g id="text_19">
     <!-- $-x + 2y = 3$（即 $y = \frac{x+3}{2}$） -->
     <g transform="translate(75.346953 66.832187) scale(0.1 -0.1)">
      <defs>
       <path id="DejaVuSans-e" d="M 2944 4013 
L 2944 2272 
L 4684 2272 
L 4684 1741 
L 2944 1741 
L 2944 0 
L 2419 0 
L 2419 1741 
L 678 1741 
L 678 2272 
L 2419 2272 
L 2419 4013 
L 2944 4013 
z
" transform="scale(0.015625)"/>
       <path id="DejaVuSans-16" d="M 2597 2516 
Q 3050 2419 3304 2112 
Q 3559 1806 3559 1356 
Q 3559 666 3084 287 
Q 2609 -91 1734 -91 
Q 1441 -91 1130 -33 
Q 819 25 488 141 
L 488 750 
Q 750 597 1062 519 
Q 1375 441 1716 441 
Q 2309 441 2620 675 
Q 2931 909 2931 1356 
Q 2931 1769 2642 2001 
Q 2353 2234 1838 2234 
L 1294 2234 
L 1294 2753 
L 1863 2753 
Q 2328 2753 2575 2939 
Q 2822 3125 2822 3475 
Q 2822 3834 2567 4026 
Q 2313 4219 1838 4219 
Q 1578 4219 1281 4162 
Q 984 4106 628 3988 
L 628 4550 
Q 988 4650 1302 4700 
Q 1616 4750 1894 4750 
Q 2613 4750 3031 4423 
Q 3450 4097 3450 3541 
Q 3450 3153 3228 2886 
Q 3006 2619 2597 2516 
z
" transform="scale(0.015625)"/>
      </defs>
      <use xlink:href="#DejaVuSans-c9c" transform="translate(0 0.676563)"/>
      <use xlink:href="#DejaVuSans-Oblique-5b" transform="translate(83.789062 0.676563)"/>
      <use xlink:href="#DejaVuSans-e" transform="translate(162.451172 0.676563)"/>
      <use xlink:href="#DejaVuSans-15" transform="translate(265.722656 0.676563)"/>
      <use xlink:href="#DejaVuSans-Oblique-5c" transform="translate(329.345703 0.676563)"/>
      <use xlink:href="#DejaVuSans-20" transform="translate(408.007812 0.676563)"/>
      <use xlink:href="#DejaVuSans-16" transform="translate(511.279297 0.676563)"/>
      <use xlink:href="#ArialUnicodeMS-19e4" transform="translate(574.902344 0.676563)"/>
      <use xlink:href="#ArialUnicodeMS-2602" transform="translate(674.902344 0.676563)"/>
      <use xlink:href="#ArialUnicodeMS-3" transform="translate(774.902344 0.676563)"/>
      <use xlink:href="#DejaVuSans-Oblique-5c" transform="translate(802.685547 0.676563)"/>
      <use xlink:href="#DejaVuSans-20" transform="translate(881.347656 0.676563)"/>
      <use xlink:href="#DejaVuSans-Oblique-5b" transform="translate(990.869141 36.046875) scale(0.7)"/>
      <use xlink:href="#DejaVuSans-e" transform="translate(1045.932617 36.046875) scale(0.7)"/>
      <use xlink:href="#DejaVuSans-16" transform="translate(1118.222656 36.046875) scale(0.7)"/>
      <use xlink:href="#DejaVuSans-15" transform="translate(1054.869141 -35.651562) scale(0.7)"/>
      <use xlink:href="#ArialUnicodeMS-19e5" transform="translate(1169.008789 0.676563)"/>
      <path d="M 990.869141 22.551563 
L 990.869141 28.801563 
L 1162.758789 28.801563 
L 1162.758789 22.551563 
L 990.869141 22.551563 
z
"/>
     </g>
    </g>
   </g>
  </g>
 </g>
 <defs>
  <clipPath id="p72d5628afd">
   <rect x="38.346953" y="34.032187" width="292.936882" height="351.524258"/>
  </clipPath>
 </defs>
</svg>
